<svg xmlns="http://www.w3.org/2000/svg" width="132.712" height="56.326" viewBox="0 0 132.712 56.326">
  <g id="グループ_2" data-name="グループ 2" transform="translate(-46.35 -21.7)">
    <path id="パス_79" data-name="パス 79" d="M23.626-47.05a8.8,8.8,0,0,0-7.653,3.74q-2.647,3.74-2.647,10.242,0,6.559,2.445,10.156t7.854,3.6a22.534,22.534,0,0,0,5.006-.575A49.5,49.5,0,0,0,34.1-21.5V-14.2a29.277,29.277,0,0,1-5.351,1.611,30.989,30.989,0,0,1-5.927.518,19.093,19.093,0,0,1-10.472-2.618,15.514,15.514,0,0,1-6.042-7.365A28.923,28.923,0,0,1,4.35-33.126a25.566,25.566,0,0,1,2.244-10.99,17.355,17.355,0,0,1,6.531-7.48,19.3,19.3,0,0,1,10.5-2.7,24.966,24.966,0,0,1,6.128.777,32.638,32.638,0,0,1,5.9,2.1l-2.819,7.077a45.248,45.248,0,0,0-4.632-1.9A13.947,13.947,0,0,0,23.626-47.05ZM73.742-12.642,70.75-22.423H55.79L52.8-12.642H43.419L57.919-53.9H68.563L83.121-12.642ZM68.679-29.731l-2.992-9.551q-.288-.978-.748-2.474t-.921-3.05q-.46-1.554-.748-2.7-.288,1.151-.777,2.848t-.921,3.222q-.432,1.525-.662,2.158l-2.934,9.551Zm37.17,17.089H97.16V-46.475H86v-7.25h31.013v7.25H105.849Zm17.895-4.028q0-2.647,1.438-3.711a5.736,5.736,0,0,1,3.51-1.064,5.642,5.642,0,0,1,3.452,1.064q1.438,1.064,1.438,3.711a4.351,4.351,0,0,1-1.438,3.654,5.444,5.444,0,0,1-3.452,1.122,5.533,5.533,0,0,1-3.51-1.122A4.351,4.351,0,0,1,123.743-16.67Z" transform="translate(42 76)" fill="#ffe7b4"/>
    <path id="パス_78" data-name="パス 78" d="M3.78-7.531a1.407,1.407,0,0,0-1.224.6,2.793,2.793,0,0,0-.423,1.639,2.871,2.871,0,0,0,.391,1.625,1.41,1.41,0,0,0,1.257.575,3.605,3.605,0,0,0,.8-.092,7.919,7.919,0,0,0,.875-.258v1.169a4.684,4.684,0,0,1-.856.258,4.958,4.958,0,0,1-.948.083,3.055,3.055,0,0,1-1.676-.419,2.482,2.482,0,0,1-.967-1.178A4.628,4.628,0,0,1,.7-5.3a4.091,4.091,0,0,1,.359-1.758A2.777,2.777,0,0,1,2.1-8.258a3.088,3.088,0,0,1,1.68-.433,4,4,0,0,1,.98.124A5.222,5.222,0,0,1,5.7-8.23L5.253-7.1a7.24,7.24,0,0,0-.741-.3A2.232,2.232,0,0,0,3.78-7.531Zm9.381,5.505h-1.39V-4.861H9.166v2.836H7.776V-8.6h1.39v2.578h2.605V-8.6h1.39Zm6.362,0H15.739V-8.6h3.784v1.142H17.129v1.445h2.228V-4.87H17.129v1.694h2.394Zm6.076,0H21.815V-8.6H25.6v1.142H23.205v1.445h2.228V-4.87H23.205v1.694H25.6Zm6.168-1.823a1.715,1.715,0,0,1-.631,1.395,2.743,2.743,0,0,1-1.791.52,4.222,4.222,0,0,1-1.86-.4v-1.3q.47.2.971.373a3.092,3.092,0,0,0,1,.17,1.077,1.077,0,0,0,.732-.2.65.65,0,0,0,.216-.5.585.585,0,0,0-.17-.423,1.835,1.835,0,0,0-.456-.327q-.285-.152-.654-.327-.23-.11-.5-.262a2.775,2.775,0,0,1-.511-.377,1.819,1.819,0,0,1-.4-.548,1.755,1.755,0,0,1-.157-.773,1.684,1.684,0,0,1,.6-1.376,2.488,2.488,0,0,1,1.629-.493,3.865,3.865,0,0,1,.976.12,6.9,6.9,0,0,1,.976.341l-.451,1.086a7.728,7.728,0,0,0-.81-.285,2.7,2.7,0,0,0-.736-.1.9.9,0,0,0-.608.184.6.6,0,0,0-.212.479.627.627,0,0,0,.313.552,8.77,8.77,0,0,0,.93.5,5.366,5.366,0,0,1,.861.5,1.867,1.867,0,0,1,.548.608A1.769,1.769,0,0,1,31.767-3.848Zm5.9,1.823H33.884V-8.6h3.784v1.142H35.275v1.445H37.5V-4.87H35.275v1.694h2.394Zm9.63,0-.479-1.565H44.426l-.479,1.565h-1.5l2.32-6.6h1.7l2.329,6.6Zm-.81-2.734-.479-1.528q-.046-.157-.12-.4t-.147-.488q-.074-.249-.12-.433-.046.184-.124.456t-.147.516q-.069.244-.106.345l-.47,1.528Zm6.665-2.771a1.407,1.407,0,0,0-1.224.6,2.793,2.793,0,0,0-.423,1.639A2.871,2.871,0,0,0,51.9-3.669a1.41,1.41,0,0,0,1.257.575,3.605,3.605,0,0,0,.8-.092,7.919,7.919,0,0,0,.875-.258v1.169a4.684,4.684,0,0,1-.856.258,4.958,4.958,0,0,1-.948.083,3.055,3.055,0,0,1-1.676-.419,2.482,2.482,0,0,1-.967-1.178A4.628,4.628,0,0,1,50.069-5.3a4.09,4.09,0,0,1,.359-1.758,2.777,2.777,0,0,1,1.045-1.2,3.088,3.088,0,0,1,1.68-.433,4,4,0,0,1,.98.124,5.222,5.222,0,0,1,.944.336L54.626-7.1a7.24,7.24,0,0,0-.741-.3A2.232,2.232,0,0,0,53.153-7.531Zm8.019,5.505-.479-1.565H58.3l-.479,1.565h-1.5l2.32-6.6h1.7l2.329,6.6Zm-.81-2.734-.479-1.528q-.046-.157-.12-.4t-.147-.488q-.074-.249-.12-.433-.046.184-.124.456t-.147.516q-.069.244-.106.345l-.47,1.528Zm9.51-.617a3.181,3.181,0,0,1-.948,2.509,3.842,3.842,0,0,1-2.642.842h-1.86V-8.6h2.062a4.063,4.063,0,0,1,1.791.368,2.692,2.692,0,0,1,1.178,1.086A3.457,3.457,0,0,1,69.872-5.377Zm-1.445.037a2.293,2.293,0,0,0-.479-1.6,1.8,1.8,0,0,0-1.39-.516h-.746v4.281h.6Q68.426-3.176,68.426-5.34Zm7.512,3.314H72.155V-8.6h3.784v1.142H73.545v1.445h2.228V-4.87H73.545v1.694h2.394Zm5.073,0L79.428-7.181h-.037l.028.552q.018.368.037.792t.018.755v3.056H78.231V-8.6h1.9l1.556,5.027h.028L83.359-8.6h1.9v6.573h-1.3V-5.137q0-.313.014-.718T84-6.624q.014-.364.023-.548h-.037L82.291-2.025Zm8.866-3.867L91.248-8.6h1.5L90.567-4.585v2.559H89.186V-4.539L87-8.6h1.51Zm10.467,3.867h-1.39V-7.439H97.168V-8.6h4.962v1.16h-1.786Zm9.5-3.3a4.372,4.372,0,0,1-.336,1.781,2.567,2.567,0,0,1-1.031,1.183,3.341,3.341,0,0,1-1.763.423,3.341,3.341,0,0,1-1.763-.423,2.563,2.563,0,0,1-1.031-1.188,4.405,4.405,0,0,1-.336-1.786,4.34,4.34,0,0,1,.336-1.777,2.545,2.545,0,0,1,1.031-1.174,3.39,3.39,0,0,1,1.772-.419,3.345,3.345,0,0,1,1.758.419A2.548,2.548,0,0,1,109.509-7.1,4.372,4.372,0,0,1,109.845-5.321Zm-4.8,0a2.9,2.9,0,0,0,.4,1.625,1.415,1.415,0,0,0,1.27.594,1.411,1.411,0,0,0,1.28-.594,2.953,2.953,0,0,0,.387-1.625,2.953,2.953,0,0,0-.387-1.625,1.4,1.4,0,0,0-1.27-.594,1.425,1.425,0,0,0-1.28.594A2.9,2.9,0,0,0,105.049-5.321Zm12.364,3.3h-1.583L114.108-4.8l-.589.423v2.348h-1.39V-8.6h1.39v3.01l.276-.387.276-.387L115.847-8.6h1.547L115.1-5.69Zm3.793-3.867L122.577-8.6h1.5L121.9-4.585v2.559h-1.381V-4.539L118.333-8.6h1.51Zm10.4.571a4.372,4.372,0,0,1-.336,1.781,2.567,2.567,0,0,1-1.031,1.183,3.341,3.341,0,0,1-1.763.423,3.341,3.341,0,0,1-1.763-.423,2.563,2.563,0,0,1-1.031-1.188,4.405,4.405,0,0,1-.336-1.786,4.34,4.34,0,0,1,.336-1.777,2.545,2.545,0,0,1,1.031-1.174,3.39,3.39,0,0,1,1.772-.419,3.345,3.345,0,0,1,1.758.419A2.548,2.548,0,0,1,131.273-7.1,4.372,4.372,0,0,1,131.609-5.321Zm-4.8,0a2.9,2.9,0,0,0,.4,1.625,1.415,1.415,0,0,0,1.27.594,1.411,1.411,0,0,0,1.28-.594,2.953,2.953,0,0,0,.387-1.625,2.953,2.953,0,0,0-.387-1.625,1.4,1.4,0,0,0-1.27-.594,1.425,1.425,0,0,0-1.28.594A2.9,2.9,0,0,0,126.812-5.321Z" transform="translate(47.454 79.96)" fill="#ffe7b4"/>
  </g>
</svg>
