<svg xmlns="http://www.w3.org/2000/svg" width="517.194" height="284.238" viewBox="0 0 517.194 284.238">
  <g id="グループ_115" data-name="グループ 115" transform="translate(855.924 -295.672)">
    <path id="パス_81" data-name="パス 81" d="M47.946-72.956q-10.614,0-16.226,7.93T26.108-43.31q0,13.908,5.185,21.533t16.653,7.625a47.779,47.779,0,0,0,10.614-1.22,104.944,104.944,0,0,0,11.59-3.416V-3.294A62.076,62.076,0,0,1,58.8.122a65.706,65.706,0,0,1-12.566,1.1q-13.542,0-22.2-5.551a32.9,32.9,0,0,1-12.81-15.616Q7.076-30.012,7.076-43.432a54.207,54.207,0,0,1,4.758-23.3,36.8,36.8,0,0,1,13.847-15.86q9.089-5.734,22.265-5.734a52.936,52.936,0,0,1,12.993,1.647,69.2,69.2,0,0,1,12.505,4.453L67.466-67.222a95.938,95.938,0,0,0-9.821-4.026A29.573,29.573,0,0,0,47.946-72.956ZM161.284,0H142.862V-37.576H108.336V0H89.914V-87.108h18.422v34.16h34.526v-34.16h18.422Zm76.494,0-6.344-20.74h-31.72L193.37,0H173.484l30.744-87.474H226.8L257.664,0ZM227.042-36.234,220.7-56.486q-.61-2.074-1.586-5.246T217.16-68.2q-.976-3.294-1.586-5.734-.61,2.44-1.647,6.039t-1.952,6.832q-.915,3.233-1.4,4.575L204.35-36.234ZM347.09,0H323.666L285.724-65.88h-.488q.244,6.222.549,12.444t.549,12.444V0h-16.47V-87.108h23.3l37.82,65.27h.366l-.488-11.956q-.244-5.978-.366-12.078V-87.108H347.09Zm56.242-48.922h34.526v45.14a99.1,99.1,0,0,1-14.274,3.66A94.658,94.658,0,0,1,406.87,1.22q-19.52,0-30.012-11.468T366.366-43.676q0-13.664,5.246-23.668a36.6,36.6,0,0,1,15.433-15.494q10.187-5.49,24.827-5.49a63.913,63.913,0,0,1,13.664,1.464,63.132,63.132,0,0,1,12.2,3.9l-6.1,14.762a44.648,44.648,0,0,0-9.15-3.416,42.209,42.209,0,0,0-10.736-1.342,26.017,26.017,0,0,0-13.969,3.66,24.222,24.222,0,0,0-9.15,10.37A35.589,35.589,0,0,0,385.4-43.31a45.477,45.477,0,0,0,2.318,15.128,21.232,21.232,0,0,0,7.32,10.309q5,3.721,13.054,3.721a49.9,49.9,0,0,0,6.588-.366q2.684-.366,5.124-.854V-33.55h-16.47ZM509.96,0H459.818V-87.108H509.96V-71.98H478.24v19.154h29.524V-37.7H478.24V-15.25h31.72Z" transform="translate(-863 384)" fill="#f20505"/>
    <g id="グループ_114" data-name="グループ 114" transform="translate(-937 -154)">
      <path id="パス_82" data-name="パス 82" d="M18.25,0H10.7V-29.4H1v-6.3H27.95v6.3h-9.7ZM64.2,0H56.65V-15.4H42.5V0H34.95V-35.7H42.5v14H56.65v-14H64.2ZM95.25,0H74.7V-35.7H95.25v6.2h-13v7.85h12.1v6.2H82.25v9.2h13Z" transform="translate(89 562) rotate(90)" fill="#f20505"/>
      <path id="パス_83" data-name="パス 83" d="M116.04-85.68,94.2,0H73.56L61.92-45q-.36-1.32-.9-3.96t-1.2-5.76q-.66-3.12-1.2-5.88a38.666,38.666,0,0,1-.66-4.44,38.667,38.667,0,0,1-.66,4.44q-.54,2.76-1.14,5.82t-1.2,5.76q-.6,2.7-.96,4.14L42.48,0H21.84L0-85.68H17.88L28.8-38.88q.72,2.76,1.56,6.96t1.56,8.4q.72,4.2,1.08,7.08.36-3,1.08-7.14t1.5-8.04q.78-3.9,1.38-6.06l12.48-48H66.6l12.48,48q.6,2.16,1.38,6.06t1.5,8.1q.72,4.2,1.08,7.08.36-3,1.08-7.14t1.62-8.28q.9-4.14,1.5-7.02l10.92-46.8ZM204.6-42.96q0,13.32-4.38,23.22A33.458,33.458,0,0,1,186.78-4.32Q177.72,1.2,163.8,1.2T140.82-4.32A33.409,33.409,0,0,1,127.38-19.8Q123-29.76,123-43.08t4.38-23.16a33.166,33.166,0,0,1,13.44-15.3Q149.88-87,163.92-87q13.92,0,22.92,5.46a33.217,33.217,0,0,1,13.38,15.36Q204.6-56.28,204.6-42.96Zm-62.52,0q0,13.44,5.16,21.18t16.56,7.74q11.64,0,16.68-7.74t5.04-21.18q0-13.44-5.04-21.18t-16.56-7.74q-11.52,0-16.68,7.74T142.08-42.96ZM248.52-85.68q17.52,0,25.86,6.36T282.72-60a22.417,22.417,0,0,1-2.22,10.26,23.322,23.322,0,0,1-5.88,7.44,34.731,34.731,0,0,1-7.86,4.98L291.96,0H271.8L251.4-32.88h-9.72V0H223.56V-85.68ZM247.2-70.8h-5.52v23.16h5.88q9,0,12.9-3t3.9-8.88q0-6.12-4.2-8.7T247.2-70.8ZM303.96,0V-85.68h18.12V-15h34.8V0ZM444-43.68q0,21.72-12.36,32.7T397.2,0H372.96V-85.68h26.88q13.44,0,23.34,4.8a35.094,35.094,0,0,1,15.36,14.16Q444-57.36,444-43.68Zm-18.84.48q0-14.16-6.24-20.88T400.8-70.8h-9.72V-15h7.8Q425.16-15,425.16-43.2Z" transform="translate(144 652)" fill="#f20505"/>
    </g>
    <path id="パス_84" data-name="パス 84" d="M67.69-49.98,54.95,0H42.91L36.12-26.25q-.21-.77-.525-2.31t-.7-3.36q-.385-1.82-.7-3.43a22.556,22.556,0,0,1-.385-2.59,22.557,22.557,0,0,1-.385,2.59q-.315,1.61-.665,3.395t-.7,3.36q-.35,1.575-.56,2.415L24.78,0H12.74L0-49.98H10.43l6.37,27.3q.42,1.61.91,4.06t.91,4.9q.42,2.45.63,4.13.21-1.75.63-4.165t.875-4.69q.455-2.275.805-3.535l7.28-28H38.85l7.28,28q.35,1.26.805,3.535t.875,4.725q.42,2.45.63,4.13.21-1.75.63-4.165t.945-4.83Q50.54-21,50.89-22.68l6.37-27.3ZM96.18,0H73.43V-6.02l6.09-2.8V-41.16l-6.09-2.8v-6.02H96.18v6.02l-6.09,2.8V-8.82l6.09,2.8Zm31.29,0H116.9V-41.16H103.32v-8.82h37.73v8.82H127.47ZM193.2,0H182.63V-21.56H162.82V0H152.25V-49.98h10.57v19.6h19.81v-19.6H193.2Z" transform="translate(-847 579)" fill="#f20505"/>
    <path id="パス_85" data-name="パス 85" d="M27.51-41.86a10.7,10.7,0,0,0-9.31,4.55q-3.22,4.55-3.22,12.46,0,7.98,2.975,12.355T27.51-8.12a27.414,27.414,0,0,0,6.09-.7,60.214,60.214,0,0,0,6.65-1.96v8.89A35.617,35.617,0,0,1,33.74.07,37.7,37.7,0,0,1,26.53.7Q18.76.7,13.79-2.485a18.874,18.874,0,0,1-7.35-8.96A35.186,35.186,0,0,1,4.06-24.92,31.1,31.1,0,0,1,6.79-38.29a21.113,21.113,0,0,1,7.945-9.1A23.479,23.479,0,0,1,27.51-50.68a30.373,30.373,0,0,1,7.455.945A39.707,39.707,0,0,1,42.14-47.18l-3.43,8.61a55.048,55.048,0,0,0-5.635-2.31A16.968,16.968,0,0,0,27.51-41.86ZM95.34,0H84.77V-21.56H64.96V0H54.39V-49.98H64.96v19.6H84.77v-19.6H95.34Zm44.87,0H111.44V-49.98h28.77v8.68h-18.2v10.99h16.94v8.68H122.01V-8.75h18.2Zm42.7,0H154.14V-49.98h28.77v8.68h-18.2v10.99h16.94v8.68H164.71V-8.75h18.2Zm43.4-13.86a13.041,13.041,0,0,1-4.795,10.6Q216.72.7,207.9.7a32.1,32.1,0,0,1-14.14-3.01v-9.87q3.57,1.54,7.385,2.835a23.51,23.51,0,0,0,7.6,1.295q3.92,0,5.565-1.505a4.946,4.946,0,0,0,1.645-3.815,4.446,4.446,0,0,0-1.295-3.22,13.951,13.951,0,0,0-3.465-2.485q-2.17-1.155-4.97-2.485-1.75-.84-3.78-1.995a21.1,21.1,0,0,1-3.885-2.87,13.829,13.829,0,0,1-3.045-4.165,13.348,13.348,0,0,1-1.19-5.88q0-6.72,4.55-10.465t12.39-3.745a29.386,29.386,0,0,1,7.42.91,52.454,52.454,0,0,1,7.42,2.59l-3.43,8.26a58.76,58.76,0,0,0-6.16-2.17,20.531,20.531,0,0,0-5.6-.77,6.834,6.834,0,0,0-4.62,1.4,4.6,4.6,0,0,0-1.61,3.64,4.769,4.769,0,0,0,2.38,4.2,66.686,66.686,0,0,0,7.07,3.78,40.8,40.8,0,0,1,6.545,3.78,14.2,14.2,0,0,1,4.165,4.62A13.452,13.452,0,0,1,226.31-13.86ZM267.68,0H238.91V-49.98h28.77v8.68h-18.2v10.99h16.94v8.68H249.48V-8.75h18.2ZM279.3-4.9q0-3.22,1.75-4.515a6.978,6.978,0,0,1,4.27-1.3,6.863,6.863,0,0,1,4.2,1.3q1.75,1.3,1.75,4.515a5.293,5.293,0,0,1-1.75,4.445A6.623,6.623,0,0,1,285.32.91a6.732,6.732,0,0,1-4.27-1.365A5.293,5.293,0,0,1,279.3-4.9Z" transform="translate(-630 579)" fill="#f20505"/>
  </g>
</svg>
