<svg xmlns="http://www.w3.org/2000/svg" xmlns:xlink="http://www.w3.org/1999/xlink" width="2440.457" height="101.577" viewBox="0 0 2440.457 101.577">
  <defs>
    <clipPath id="clip-path">
      <rect id="長方形_25" data-name="長方形 25" width="806.457" height="101.577" fill="none" stroke="#f20505" stroke-width="1"/>
    </clipPath>
  </defs>
  <g id="グループ_131" data-name="グループ 131" transform="translate(2689 -1997.598)">
    <g id="グループ_128" data-name="グループ 128">
      <g id="グループ_126" data-name="グループ 126" transform="translate(-1872 1997.598)">
        <g id="グループ_64" data-name="グループ 64" transform="translate(0 0)" clip-path="url(#clip-path)">
          <path id="パス_5" data-name="パス 5" d="M9.823,63.548a5.186,5.186,0,0,0-4.439,2.83A13.53,13.53,0,0,0,4,73.576,13.844,13.844,0,0,0,5.74,80.593a4.894,4.894,0,0,0,4.7,2.3,10.136,10.136,0,0,0,2.641-.492,20.247,20.247,0,0,0,2.65-1.091l.137,4.07a11.376,11.376,0,0,1-2.62,1.109,14.318,14.318,0,0,1-3.063.458,8.431,8.431,0,0,1-5.511-1.414,9.75,9.75,0,0,1-3.368-4.614A22.27,22.27,0,0,1,.015,73.746a20.181,20.181,0,0,1,.931-7.174,11.069,11.069,0,0,1,3.271-5.015,8.9,8.9,0,0,1,5.47-2.042,11.538,11.538,0,0,1,3.207.282,11.369,11.369,0,0,1,3,1.153L14.7,64.94a22.409,22.409,0,0,0-2.392-1.015,6.315,6.315,0,0,0-2.489-.376" transform="translate(0 14.617)" fill="none" stroke="#f20505" stroke-width="1"/>
          <path id="パス_6" data-name="パス 6" d="M41.406,82.469l-3.784.815L36,71.611l-9.283,2L28.34,85.283l-3.785.815L20.906,59.807l3.784-.816L26.162,69.6l9.282-2L33.972,56.992l3.784-.815Z" transform="translate(0 13.801)" fill="none" stroke="#f20505" stroke-width="1"/>
          <path id="パス_7" data-name="パス 7" d="M62.562,75.744,51.02,80.592,44.175,55.309l11.542-4.848,1.026,3.788-7.9,3.32,1.744,6.445,7.392-3.1L59,64.7l-7.39,3.1,2.013,7.437,7.9-3.32Z" transform="translate(0 12.396)" fill="none" stroke="#f20505" stroke-width="1"/>
          <path id="パス_8" data-name="パス 8" d="M81.416,66.789l-10.95,6.644L61.087,49.446,72.036,42.8,73.442,46.4l-7.5,4.549,2.391,6.114,7.013-4.254,1.4,3.595-7.012,4.255L72.5,67.71,80,63.162Z" transform="translate(0 10.515)" fill="none" stroke="#f20505" stroke-width="1"/>
          <path id="パス_9" data-name="パス 9" d="M96.093,49.95a8.252,8.252,0,0,1,.473,6.142,10.544,10.544,0,0,1-4.124,5.365,11.9,11.9,0,0,1-5.79,2.465l-1.81-3.878a21.137,21.137,0,0,0,3.131-.689,10.1,10.1,0,0,0,3.089-1.525,5.009,5.009,0,0,0,2.066-2.6,3.761,3.761,0,0,0-.223-2.669A2.461,2.461,0,0,0,90.857,51a15.48,15.48,0,0,0-3.746.227,12.078,12.078,0,0,1-2.863.152,5.584,5.584,0,0,1-2.722-.926,6.509,6.509,0,0,1-2.192-2.8,7.89,7.89,0,0,1-.484-5.831,9.482,9.482,0,0,1,3.689-4.92,12.575,12.575,0,0,1,2.944-1.613,13.909,13.909,0,0,1,3.092-.771l.491,4.1a16.823,16.823,0,0,0-2.67.638,8.606,8.606,0,0,0-2.331,1.213,4.2,4.2,0,0,0-1.7,2.227,3.457,3.457,0,0,0,.219,2.478,2.748,2.748,0,0,0,1.136,1.318,3.38,3.38,0,0,0,1.771.338q1.074-.041,2.7-.272a14.458,14.458,0,0,1,3.346-.154,5.124,5.124,0,0,1,2.588.934,6.543,6.543,0,0,1,1.968,2.617" transform="translate(0 8.479)" fill="none" stroke="#f20505" stroke-width="1"/>
          <path id="パス_10" data-name="パス 10" d="M115,47.233l-10.574,7.531L93.8,31.6l10.574-7.53,1.593,3.47L98.724,32.7l2.71,5.9,6.77-4.822,1.594,3.47-6.772,4.823,3.127,6.812,7.241-5.157Z" transform="translate(0 5.913)" fill="none" stroke="#f20505" stroke-width="1"/>
          <path id="パス_11" data-name="パス 11" d="M141.863,35.1l-3.88-5.694-7.517,3.657.275,7.45-3.8,1.849-.507-28.519,4.08-1.986,15.149,21.394Zm-6-9.075-3.741-5.561q-.254-.4-.744-1.142t-.966-1.536q-.474-.792-.8-1.317.09.8.164,1.8t.144,1.9q.069.889.077,1.325l.249,7.261Z" transform="translate(0 2.913)" fill="none" stroke="#f20505" stroke-width="1"/>
          <path id="パス_12" data-name="パス 12" d="M154.586,8.7a5.8,5.8,0,0,0-3.924,3.834,13.967,13.967,0,0,0-.251,7.393q.849,4.436,2.78,6.474a4.555,4.555,0,0,0,4.967,1.139,10.89,10.89,0,0,0,2.517-1.112,22.25,22.25,0,0,0,2.434-1.7l.758,3.962a12.731,12.731,0,0,1-2.4,1.712,15.237,15.237,0,0,1-2.936,1.178A8.162,8.162,0,0,1,152.9,31.5a8.629,8.629,0,0,1-4.012-3.726,20.9,20.9,0,0,1-2.367-6.732,20.455,20.455,0,0,1-.187-7.263,12.287,12.287,0,0,1,2.441-5.7,9.827,9.827,0,0,1,5.058-3.306,11.607,11.607,0,0,1,3.191-.487,10.661,10.661,0,0,1,3.119.42l-.555,4.2a21.232,21.232,0,0,0-2.5-.43,6.3,6.3,0,0,0-2.5.224" transform="translate(0 1.053)" fill="none" stroke="#f20505" stroke-width="1"/>
          <path id="パス_13" data-name="パス 13" d="M183.412,27.267l-2.558-6.754-8.022,1.1-1.288,7.282-4.056.557,5.458-27.706,4.354-.6L187.468,26.71Zm-3.9-10.705-2.453-6.581q-.163-.467-.482-1.344t-.611-1.8q-.291-.919-.5-1.53c-.054.533-.126,1.134-.219,1.8s-.177,1.291-.256,1.878-.146,1.023-.2,1.305l-1.274,7.093Z" transform="translate(0 0.283)" fill="none" stroke="#f20505" stroke-width="1"/>
          <path id="パス_14" data-name="パス 14" d="M209.559,13.107q.031,6.766-2.982,10.207T198.135,26.8l-6.031.045L191.976.16l6.66-.05A10.749,10.749,0,0,1,204.4,1.561a9.753,9.753,0,0,1,3.786,4.382,17.151,17.151,0,0,1,1.371,7.164m-4.02.181q-.024-4.785-1.8-7.013a6.067,6.067,0,0,0-5.081-2.2l-2.82.021.091,18.721,2.31-.016q7.35-.056,7.3-9.509" transform="translate(0 0.027)" fill="none" stroke="#f20505" stroke-width="1"/>
          <path id="パス_15" data-name="パス 15" d="M228.167,28.493l-12.131-1.366L217.964.553l12.13,1.366L229.807,5.9,221.5,4.967l-.491,6.774,7.768.874-.289,3.982-7.768-.874-.568,7.815,8.307.935Z" transform="translate(0 0.136)" fill="none" stroke="#f20505" stroke-width="1"/>
          <path id="パス_16" data-name="パス 16" d="M243.329,31.3,241.545,8.353l-.116-.034q-.078.746-.28,2.086t-.445,2.9q-.241,1.56-.492,2.907l-2.5,13.472-3.362-.965,4.816-26,5.2,1.495,1.712,22.007.117.034,9.513-18.782,5.2,1.495-4.815,26-3.566-1.024,2.535-13.691q.229-1.239.547-2.7t.606-2.779q.291-1.317.455-2.035l-.118-.035-9.9,19.553Z" transform="translate(0 0.67)" fill="none" stroke="#f20505" stroke-width="1"/>
          <path id="パス_17" data-name="パス 17" d="M273.019,25.365l8.088-8.614,3.835,1.942-11.51,11.76-3.14,9.626-3.557-1.8,3.083-9.451-1.608-18.6,3.864,1.954Z" transform="translate(0 2.512)" fill="none" stroke="#f20505" stroke-width="1"/>
          <path id="パス_18" data-name="パス 18" d="M296.417,53.351l-3.328-2.387,9.073-19.624-5.33-3.823,1.617-3.5,13.987,10.034-1.617,3.5-5.33-3.823Z" transform="translate(0 5.901)" fill="none" stroke="#f20505" stroke-width="1"/>
          <path id="パス_19" data-name="パス 19" d="M328.5,57.676A17.307,17.307,0,0,1,324.69,63.3a7.42,7.42,0,0,1-4.809,2.13,9.091,9.091,0,0,1-5.59-1.961,12.029,12.029,0,0,1-4.256-4.971,12.705,12.705,0,0,1-.982-6.228,21.007,21.007,0,0,1,1.911-6.983,17.194,17.194,0,0,1,3.8-5.591,7.383,7.383,0,0,1,4.788-2.124,9.236,9.236,0,0,1,5.621,2,12.081,12.081,0,0,1,4.225,4.929,12.544,12.544,0,0,1,1.01,6.2,20.855,20.855,0,0,1-1.9,6.967M314.475,47.8a14.534,14.534,0,0,0-1.538,7.074,6.574,6.574,0,0,0,2.964,5.047q2.795,1.969,5.041.588t4.032-5.316a14.887,14.887,0,0,0,1.577-7.045,6.513,6.513,0,0,0-2.977-5.059q-2.742-1.93-5.028-.578T314.475,47.8" transform="translate(0 9.229)" fill="none" stroke="#f20505" stroke-width="1"/>
          <path id="パス_20" data-name="パス 20" d="M346.275,79.51l-4.08-2.086-2.283-13.933-2.463.882-3,9.091L330.9,71.648l8.135-24.683,3.552,1.816L338.759,60.4q.852-.613,1.725-1.2c.582-.387,1.166-.784,1.752-1.183l8.011-5.315,4.024,2.058-10.849,7.135Z" transform="translate(0 11.538)" fill="none" stroke="#f20505" stroke-width="1"/>
          <path id="パス_21" data-name="パス 21" d="M362.052,67.681l6.984-10L373.06,58.9l-10,13.738-1.971,10.1L357.358,81.6l1.935-9.913-3.782-18.106,4.052,1.227Z" transform="translate(0 13.164)" fill="none" stroke="#f20505" stroke-width="1"/>
          <path id="パス_22" data-name="パス 22" d="M395.025,73.781a21.143,21.143,0,0,1-1.628,7.074,9.547,9.547,0,0,1-3.688,4.395,8.77,8.77,0,0,1-5.744,1.061,9.342,9.342,0,0,1-5.517-2.368,10.761,10.761,0,0,1-2.943-5.182,22.072,22.072,0,0,1-.55-7.344,20.966,20.966,0,0,1,1.626-7.037A9.465,9.465,0,0,1,380.252,60a8.863,8.863,0,0,1,5.787-1.036,9.382,9.382,0,0,1,5.474,2.341,10.613,10.613,0,0,1,2.96,5.147,21.937,21.937,0,0,1,.552,7.327m-16.041-1.86a14.826,14.826,0,0,0,.921,7.239,5.136,5.136,0,0,0,4.363,3.1,4.656,4.656,0,0,0,4.792-2.034,14.506,14.506,0,0,0,1.933-6.907,15.236,15.236,0,0,0-.876-7.232,5.085,5.085,0,0,0-4.378-3.1,4.7,4.7,0,0,0-4.777,2.035,14.116,14.116,0,0,0-1.978,6.9" transform="translate(0 14.464)" fill="none" stroke="#f20505" stroke-width="1"/>
          <path id="パス_23" data-name="パス 23" d="M421,63.227a5.257,5.257,0,0,0-4.382,2.967,13.621,13.621,0,0,0-1.235,7.237,13.749,13.749,0,0,0,1.876,6.959A4.841,4.841,0,0,0,422,82.545a10.257,10.257,0,0,0,2.631-.575,20.531,20.531,0,0,0,2.628-1.173l.217,4.063a11.534,11.534,0,0,1-2.6,1.19,14.391,14.391,0,0,1-3.053.556,8.377,8.377,0,0,1-5.538-1.244,9.589,9.589,0,0,1-3.458-4.507,22.041,22.041,0,0,1-1.435-7.126,20.221,20.221,0,0,1,.786-7.2,11.228,11.228,0,0,1,3.168-5.113,9.006,9.006,0,0,1,5.43-2.212,11.531,11.531,0,0,1,3.211.182,11.208,11.208,0,0,1,3.019,1.06l-1.108,4.025a22.036,22.036,0,0,0-2.411-.942,6.294,6.294,0,0,0-2.495-.3" transform="translate(0 14.533)" fill="none" stroke="#f20505" stroke-width="1"/>
          <path id="パス_24" data-name="パス 24" d="M453,81.134l-3.76.972-1.931-11.6-9.224,2.383,1.931,11.6-3.76.973-4.35-26.126,3.761-.972L437.422,68.9l9.224-2.382L444.892,55.98l3.759-.973Z" transform="translate(0 13.513)" fill="none" stroke="#f20505" stroke-width="1"/>
          <path id="パス_25" data-name="パス 25" d="M473.935,73.594l-11.393,5.369-7.578-24.957,11.392-5.368,1.136,3.741-7.8,3.675,1.932,6.36,7.3-3.436,1.136,3.739-7.3,3.437,2.229,7.341,7.8-3.676Z" transform="translate(0 11.949)" fill="none" stroke="#f20505" stroke-width="1"/>
          <path id="パス_26" data-name="パス 26" d="M492.428,64.132l-10.8,7.006L471.733,47.47l10.8-7.006,1.482,3.548-7.4,4.8,2.521,6.033,6.919-4.487,1.482,3.548-6.919,4.487,2.909,6.961,7.4-4.8Z" transform="translate(0 9.941)" fill="none" stroke="#f20505" stroke-width="1"/>
          <path id="パス_27" data-name="パス 27" d="M506.616,47.387a8.246,8.246,0,0,1,.5,6.139,10.577,10.577,0,0,1-4.1,5.4,11.914,11.914,0,0,1-5.778,2.507l-1.828-3.862a21.153,21.153,0,0,0,3.128-.714,10.168,10.168,0,0,0,3.081-1.548,5.031,5.031,0,0,0,2.053-2.613,3.762,3.762,0,0,0-.235-2.669,2.453,2.453,0,0,0-2.057-1.547,15.428,15.428,0,0,0-3.745.255,12.057,12.057,0,0,1-2.861.172,5.564,5.564,0,0,1-2.726-.9,6.48,6.48,0,0,1-2.206-2.783,7.889,7.889,0,0,1-.512-5.828A9.519,9.519,0,0,1,493,34.439a12.7,12.7,0,0,1,2.935-1.634,13.852,13.852,0,0,1,3.09-.793l.509,4.093a16.863,16.863,0,0,0-2.666.658,8.6,8.6,0,0,0-2.326,1.231,4.225,4.225,0,0,0-1.691,2.24,3.462,3.462,0,0,0,.232,2.476,2.745,2.745,0,0,0,1.142,1.308,3.382,3.382,0,0,0,1.773.325q1.074-.05,2.7-.291a14.366,14.366,0,0,1,3.345-.179,5.087,5.087,0,0,1,2.593.916,6.529,6.529,0,0,1,1.98,2.6" transform="translate(0 7.864)" fill="none" stroke="#f20505" stroke-width="1"/>
          <path id="パス_28" data-name="パス 28" d="M525.625,44.928l-10.663,7.334L504.608,28.9l10.663-7.334,1.551,3.5-7.3,5.021,2.64,5.954,6.828-4.7,1.552,3.5-6.829,4.7,3.046,6.87,7.3-5.021Z" transform="translate(0 5.299)" fill="none" stroke="#f20505" stroke-width="1"/>
          <path id="パス_29" data-name="パス 29" d="M552.747,33.664l-3.733-5.846-7.6,3.361.086,7.456-3.847,1.7.219-28.526,4.128-1.824,14.6,21.98Zm-5.768-9.308-3.6-5.706q-.245-.407-.715-1.171t-.925-1.573q-.456-.811-.766-1.347.07.8.117,1.811c.034.674.064,1.307.1,1.9s.044,1.038.044,1.33l.062,7.267Z" transform="translate(0 2.453)" fill="none" stroke="#f20505" stroke-width="1"/>
          <path id="パス_30" data-name="パス 30" d="M566.174,7.569a5.7,5.7,0,0,0-4.016,3.683,13.933,13.933,0,0,0-.432,7.381,13.02,13.02,0,0,0,2.62,6.576,4.6,4.6,0,0,0,4.937,1.328,10.769,10.769,0,0,0,2.543-1.016,22.008,22.008,0,0,0,2.475-1.609l.66,3.99a12.453,12.453,0,0,1-2.443,1.619,15.009,15.009,0,0,1-2.963,1.068,8.168,8.168,0,0,1-5.623-.293,8.792,8.792,0,0,1-3.919-3.876,21.16,21.16,0,0,1-2.2-6.819,20.438,20.438,0,0,1-.008-7.267,12.1,12.1,0,0,1,2.579-5.6,9.674,9.674,0,0,1,5.137-3.113,11.62,11.62,0,0,1,3.2-.365,10.744,10.744,0,0,1,3.107.538l-.657,4.174a21.389,21.389,0,0,0-2.491-.523,6.311,6.311,0,0,0-2.506.128" transform="translate(0 0.798)" fill="none" stroke="#f20505" stroke-width="1"/>
          <path id="パス_31" data-name="パス 31" d="M594.565,26.974l-2.423-6.832-8.041.851-1.434,7.239-4.065.43,6.014-27.527L588.98.673l9.65,25.872ZM590.877,16.15l-2.32-6.657q-.153-.471-.454-1.358c-.2-.59-.393-1.2-.575-1.815s-.338-1.132-.466-1.545c-.065.533-.149,1.129-.255,1.791s-.2,1.283-.294,1.868-.167,1.018-.228,1.3l-1.417,7.05Z" transform="translate(0 0.166)" fill="none" stroke="#f20505" stroke-width="1"/>
          <path id="パス_32" data-name="パス 32" d="M620.987,13.417q-.084,6.766-3.156,10.123t-8.5,3.256l-6.03-.117L603.633,0l6.66.128a10.85,10.85,0,0,1,5.74,1.607,9.894,9.894,0,0,1,3.709,4.482,17.243,17.243,0,0,1,1.245,7.2m-4.021.072q.06-4.783-1.682-7.059a6.123,6.123,0,0,0-5.041-2.341l-2.82-.055-.234,18.72,2.31.046q7.348.142,7.467-9.311" transform="translate(0 0)" fill="none" stroke="#f20505" stroke-width="1"/>
          <path id="パス_33" data-name="パス 33" d="M639.275,29.223l-12.1-1.749L629.645.969l12.1,1.75-.37,3.971-8.285-1.2-.629,6.756,7.748,1.119-.37,3.972-7.748-1.12-.726,7.8,8.285,1.2Z" transform="translate(0 0.239)" fill="none" stroke="#f20505" stroke-width="1"/>
          <path id="パス_34" data-name="パス 34" d="M654.323,32.44,653.115,9.433,653,9.4q-.1.742-.331,2.074t-.518,2.884q-.282,1.551-.565,2.887l-2.831,13.368-3.336-1.1,5.464-25.8,5.163,1.7,1.16,22.063.117.039L667.3,9.11l5.164,1.7L667,36.606l-3.539-1.163,2.878-13.585q.259-1.228.613-2.678t.677-2.753q.323-1.306.505-2.019l-.116-.037L657.63,33.527Z" transform="translate(0 0.912)" fill="none" stroke="#f20505" stroke-width="1"/>
          <path id="パス_35" data-name="パス 35" d="M684.123,27.456l8.292-8.3,3.787,2.085L684.412,32.56l-3.371,9.5-3.512-1.933,3.31-9.331-1.155-18.654,3.814,2.1Z" transform="translate(0 2.983)" fill="none" stroke="#f20505" stroke-width="1"/>
          <path id="パス_36" data-name="パス 36" d="M706.981,55.879l-3.312-2.422,9.2-19.529-5.3-3.878,1.641-3.48,13.918,10.178-1.64,3.48-5.3-3.879Z" transform="translate(0 6.527)" fill="none" stroke="#f20505" stroke-width="1"/>
          <path id="パス_37" data-name="パス 37" d="M739.269,59.94a17.546,17.546,0,0,1-3.729,5.708,7.5,7.5,0,0,1-4.778,2.236,9.034,9.034,0,0,1-5.616-1.837,11.887,11.887,0,0,1-4.328-4.877,12.667,12.667,0,0,1-1.07-6.2,21.107,21.107,0,0,1,1.811-7.024,17.392,17.392,0,0,1,3.714-5.675,7.446,7.446,0,0,1,4.758-2.228,9.17,9.17,0,0,1,5.649,1.88,11.936,11.936,0,0,1,4.294,4.834,12.509,12.509,0,0,1,1.1,6.182,21,21,0,0,1-1.8,7.007M725.1,50.377a14.612,14.612,0,0,0-1.437,7.106,6.517,6.517,0,0,0,3.036,4.983q2.822,1.906,5.048.475t3.956-5.4a14.953,14.953,0,0,0,1.477-7.08,6.449,6.449,0,0,0-3.049-4.99q-2.77-1.87-5.035-.466t-4,5.377" transform="translate(0 9.832)" fill="none" stroke="#f20505" stroke-width="1"/>
          <path id="パス_38" data-name="パス 38" d="M757.8,81.131l-4.137-1.9L750.985,65.4l-2.437.99-2.735,9.218-3.6-1.658,7.424-25.028,3.6,1.659-3.494,11.778q.834-.652,1.689-1.274t1.718-1.262l7.854-5.666,4.08,1.877-10.638,7.613Z" transform="translate(0 12.02)" fill="none" stroke="#f20505" stroke-width="1"/>
          <path id="パス_39" data-name="パス 39" d="M773.268,68.741l6.7-10.3,4.054,1.044-9.609,14.164-1.688,10.173-3.761-.968,1.657-9.99-4.285-17.931,4.084,1.051Z" transform="translate(0 13.496)" fill="none" stroke="#f20505" stroke-width="1"/>
          <path id="パス_40" data-name="パス 40" d="M806.415,73.85a21.273,21.273,0,0,1-1.476,7.126,9.7,9.7,0,0,1-3.592,4.516,8.818,8.818,0,0,1-5.719,1.252,9.222,9.222,0,0,1-5.566-2.181,10.6,10.6,0,0,1-3.053-5.082,21.994,21.994,0,0,1-.708-7.324,21.128,21.128,0,0,1,1.474-7.088,9.635,9.635,0,0,1,3.576-4.5,8.945,8.945,0,0,1,5.762-1.229,9.277,9.277,0,0,1,5.523,2.159,10.453,10.453,0,0,1,3.069,5.047,21.845,21.845,0,0,1,.71,7.3M790.34,72.528a14.739,14.739,0,0,0,1.076,7.2,5.05,5.05,0,0,0,4.428,2.948,4.706,4.706,0,0,0,4.746-2.192,14.63,14.63,0,0,0,1.784-6.968,15.144,15.144,0,0,0-1.031-7.2,5.009,5.009,0,0,0-4.443-2.951,4.756,4.756,0,0,0-4.732,2.195,14.241,14.241,0,0,0-1.828,6.966" transform="translate(0 14.567)" fill="none" stroke="#f20505" stroke-width="1"/>
        </g>
      </g>
      <g id="グループ_127" data-name="グループ 127" transform="translate(-1052 1997.598)">
        <g id="グループ_64-2" data-name="グループ 64" transform="translate(-3 0)" clip-path="url(#clip-path)">
          <path id="パス_5-2" data-name="パス 5" d="M9.823,63.548a5.186,5.186,0,0,0-4.439,2.83A13.53,13.53,0,0,0,4,73.576,13.844,13.844,0,0,0,5.74,80.593a4.894,4.894,0,0,0,4.7,2.3,10.136,10.136,0,0,0,2.641-.492,20.247,20.247,0,0,0,2.65-1.091l.137,4.07a11.376,11.376,0,0,1-2.62,1.109,14.318,14.318,0,0,1-3.063.458,8.431,8.431,0,0,1-5.511-1.414,9.75,9.75,0,0,1-3.368-4.614A22.27,22.27,0,0,1,.015,73.746a20.181,20.181,0,0,1,.931-7.174,11.069,11.069,0,0,1,3.271-5.015,8.9,8.9,0,0,1,5.47-2.042,11.538,11.538,0,0,1,3.207.282,11.369,11.369,0,0,1,3,1.153L14.7,64.94a22.409,22.409,0,0,0-2.392-1.015,6.315,6.315,0,0,0-2.489-.376" transform="translate(0 14.617)" fill="none" stroke="#f20505" stroke-width="1"/>
          <path id="パス_6-2" data-name="パス 6" d="M41.406,82.469l-3.784.815L36,71.611l-9.283,2L28.34,85.283l-3.785.815L20.906,59.807l3.784-.816L26.162,69.6l9.282-2L33.972,56.992l3.784-.815Z" transform="translate(0 13.801)" fill="none" stroke="#f20505" stroke-width="1"/>
          <path id="パス_7-2" data-name="パス 7" d="M62.562,75.744,51.02,80.592,44.175,55.309l11.542-4.848,1.026,3.788-7.9,3.32,1.744,6.445,7.392-3.1L59,64.7l-7.39,3.1,2.013,7.437,7.9-3.32Z" transform="translate(0 12.396)" fill="none" stroke="#f20505" stroke-width="1"/>
          <path id="パス_8-2" data-name="パス 8" d="M81.416,66.789l-10.95,6.644L61.087,49.446,72.036,42.8,73.442,46.4l-7.5,4.549,2.391,6.114,7.013-4.254,1.4,3.595-7.012,4.255L72.5,67.71,80,63.162Z" transform="translate(0 10.515)" fill="none" stroke="#f20505" stroke-width="1"/>
          <path id="パス_9-2" data-name="パス 9" d="M96.093,49.95a8.252,8.252,0,0,1,.473,6.142,10.544,10.544,0,0,1-4.124,5.365,11.9,11.9,0,0,1-5.79,2.465l-1.81-3.878a21.137,21.137,0,0,0,3.131-.689,10.1,10.1,0,0,0,3.089-1.525,5.009,5.009,0,0,0,2.066-2.6,3.761,3.761,0,0,0-.223-2.669A2.461,2.461,0,0,0,90.857,51a15.48,15.48,0,0,0-3.746.227,12.078,12.078,0,0,1-2.863.152,5.584,5.584,0,0,1-2.722-.926,6.509,6.509,0,0,1-2.192-2.8,7.89,7.89,0,0,1-.484-5.831,9.482,9.482,0,0,1,3.689-4.92,12.575,12.575,0,0,1,2.944-1.613,13.909,13.909,0,0,1,3.092-.771l.491,4.1a16.823,16.823,0,0,0-2.67.638,8.606,8.606,0,0,0-2.331,1.213,4.2,4.2,0,0,0-1.7,2.227,3.457,3.457,0,0,0,.219,2.478,2.748,2.748,0,0,0,1.136,1.318,3.38,3.38,0,0,0,1.771.338q1.074-.041,2.7-.272a14.458,14.458,0,0,1,3.346-.154,5.124,5.124,0,0,1,2.588.934,6.543,6.543,0,0,1,1.968,2.617" transform="translate(0 8.479)" fill="none" stroke="#f20505" stroke-width="1"/>
          <path id="パス_10-2" data-name="パス 10" d="M115,47.233l-10.574,7.531L93.8,31.6l10.574-7.53,1.593,3.47L98.724,32.7l2.71,5.9,6.77-4.822,1.594,3.47-6.772,4.823,3.127,6.812,7.241-5.157Z" transform="translate(0 5.913)" fill="none" stroke="#f20505" stroke-width="1"/>
          <path id="パス_11-2" data-name="パス 11" d="M141.863,35.1l-3.88-5.694-7.517,3.657.275,7.45-3.8,1.849-.507-28.519,4.08-1.986,15.149,21.394Zm-6-9.075-3.741-5.561q-.254-.4-.744-1.142t-.966-1.536q-.474-.792-.8-1.317.09.8.164,1.8t.144,1.9q.069.889.077,1.325l.249,7.261Z" transform="translate(0 2.913)" fill="none" stroke="#f20505" stroke-width="1"/>
          <path id="パス_12-2" data-name="パス 12" d="M154.586,8.7a5.8,5.8,0,0,0-3.924,3.834,13.967,13.967,0,0,0-.251,7.393q.849,4.436,2.78,6.474a4.555,4.555,0,0,0,4.967,1.139,10.89,10.89,0,0,0,2.517-1.112,22.25,22.25,0,0,0,2.434-1.7l.758,3.962a12.731,12.731,0,0,1-2.4,1.712,15.237,15.237,0,0,1-2.936,1.178A8.162,8.162,0,0,1,152.9,31.5a8.629,8.629,0,0,1-4.012-3.726,20.9,20.9,0,0,1-2.367-6.732,20.455,20.455,0,0,1-.187-7.263,12.287,12.287,0,0,1,2.441-5.7,9.827,9.827,0,0,1,5.058-3.306,11.607,11.607,0,0,1,3.191-.487,10.661,10.661,0,0,1,3.119.42l-.555,4.2a21.232,21.232,0,0,0-2.5-.43,6.3,6.3,0,0,0-2.5.224" transform="translate(0 1.053)" fill="none" stroke="#f20505" stroke-width="1"/>
          <path id="パス_13-2" data-name="パス 13" d="M183.412,27.267l-2.558-6.754-8.022,1.1-1.288,7.282-4.056.557,5.458-27.706,4.354-.6L187.468,26.71Zm-3.9-10.705-2.453-6.581q-.163-.467-.482-1.344t-.611-1.8q-.291-.919-.5-1.53c-.054.533-.126,1.134-.219,1.8s-.177,1.291-.256,1.878-.146,1.023-.2,1.305l-1.274,7.093Z" transform="translate(0 0.283)" fill="none" stroke="#f20505" stroke-width="1"/>
          <path id="パス_14-2" data-name="パス 14" d="M209.559,13.107q.031,6.766-2.982,10.207T198.135,26.8l-6.031.045L191.976.16l6.66-.05A10.749,10.749,0,0,1,204.4,1.561a9.753,9.753,0,0,1,3.786,4.382,17.151,17.151,0,0,1,1.371,7.164m-4.02.181q-.024-4.785-1.8-7.013a6.067,6.067,0,0,0-5.081-2.2l-2.82.021.091,18.721,2.31-.016q7.35-.056,7.3-9.509" transform="translate(0 0.027)" fill="none" stroke="#f20505" stroke-width="1"/>
          <path id="パス_15-2" data-name="パス 15" d="M228.167,28.493l-12.131-1.366L217.964.553l12.13,1.366L229.807,5.9,221.5,4.967l-.491,6.774,7.768.874-.289,3.982-7.768-.874-.568,7.815,8.307.935Z" transform="translate(0 0.136)" fill="none" stroke="#f20505" stroke-width="1"/>
          <path id="パス_16-2" data-name="パス 16" d="M243.329,31.3,241.545,8.353l-.116-.034q-.078.746-.28,2.086t-.445,2.9q-.241,1.56-.492,2.907l-2.5,13.472-3.362-.965,4.816-26,5.2,1.495,1.712,22.007.117.034,9.513-18.782,5.2,1.495-4.815,26-3.566-1.024,2.535-13.691q.229-1.239.547-2.7t.606-2.779q.291-1.317.455-2.035l-.118-.035-9.9,19.553Z" transform="translate(0 0.67)" fill="none" stroke="#f20505" stroke-width="1"/>
          <path id="パス_17-2" data-name="パス 17" d="M273.019,25.365l8.088-8.614,3.835,1.942-11.51,11.76-3.14,9.626-3.557-1.8,3.083-9.451-1.608-18.6,3.864,1.954Z" transform="translate(0 2.512)" fill="none" stroke="#f20505" stroke-width="1"/>
          <path id="パス_18-2" data-name="パス 18" d="M296.417,53.351l-3.328-2.387,9.073-19.624-5.33-3.823,1.617-3.5,13.987,10.034-1.617,3.5-5.33-3.823Z" transform="translate(0 5.901)" fill="none" stroke="#f20505" stroke-width="1"/>
          <path id="パス_19-2" data-name="パス 19" d="M328.5,57.676A17.307,17.307,0,0,1,324.69,63.3a7.42,7.42,0,0,1-4.809,2.13,9.091,9.091,0,0,1-5.59-1.961,12.029,12.029,0,0,1-4.256-4.971,12.705,12.705,0,0,1-.982-6.228,21.007,21.007,0,0,1,1.911-6.983,17.194,17.194,0,0,1,3.8-5.591,7.383,7.383,0,0,1,4.788-2.124,9.236,9.236,0,0,1,5.621,2,12.081,12.081,0,0,1,4.225,4.929,12.544,12.544,0,0,1,1.01,6.2,20.855,20.855,0,0,1-1.9,6.967M314.475,47.8a14.534,14.534,0,0,0-1.538,7.074,6.574,6.574,0,0,0,2.964,5.047q2.795,1.969,5.041.588t4.032-5.316a14.887,14.887,0,0,0,1.577-7.045,6.513,6.513,0,0,0-2.977-5.059q-2.742-1.93-5.028-.578T314.475,47.8" transform="translate(0 9.229)" fill="none" stroke="#f20505" stroke-width="1"/>
          <path id="パス_20-2" data-name="パス 20" d="M346.275,79.51l-4.08-2.086-2.283-13.933-2.463.882-3,9.091L330.9,71.648l8.135-24.683,3.552,1.816L338.759,60.4q.852-.613,1.725-1.2c.582-.387,1.166-.784,1.752-1.183l8.011-5.315,4.024,2.058-10.849,7.135Z" transform="translate(0 11.538)" fill="none" stroke="#f20505" stroke-width="1"/>
          <path id="パス_21-2" data-name="パス 21" d="M362.052,67.681l6.984-10L373.06,58.9l-10,13.738-1.971,10.1L357.358,81.6l1.935-9.913-3.782-18.106,4.052,1.227Z" transform="translate(0 13.164)" fill="none" stroke="#f20505" stroke-width="1"/>
          <path id="パス_22-2" data-name="パス 22" d="M395.025,73.781a21.143,21.143,0,0,1-1.628,7.074,9.547,9.547,0,0,1-3.688,4.395,8.77,8.77,0,0,1-5.744,1.061,9.342,9.342,0,0,1-5.517-2.368,10.761,10.761,0,0,1-2.943-5.182,22.072,22.072,0,0,1-.55-7.344,20.966,20.966,0,0,1,1.626-7.037A9.465,9.465,0,0,1,380.252,60a8.863,8.863,0,0,1,5.787-1.036,9.382,9.382,0,0,1,5.474,2.341,10.613,10.613,0,0,1,2.96,5.147,21.937,21.937,0,0,1,.552,7.327m-16.041-1.86a14.826,14.826,0,0,0,.921,7.239,5.136,5.136,0,0,0,4.363,3.1,4.656,4.656,0,0,0,4.792-2.034,14.506,14.506,0,0,0,1.933-6.907,15.236,15.236,0,0,0-.876-7.232,5.085,5.085,0,0,0-4.378-3.1,4.7,4.7,0,0,0-4.777,2.035,14.116,14.116,0,0,0-1.978,6.9" transform="translate(0 14.464)" fill="none" stroke="#f20505" stroke-width="1"/>
          <path id="パス_23-2" data-name="パス 23" d="M421,63.227a5.257,5.257,0,0,0-4.382,2.967,13.621,13.621,0,0,0-1.235,7.237,13.749,13.749,0,0,0,1.876,6.959A4.841,4.841,0,0,0,422,82.545a10.257,10.257,0,0,0,2.631-.575,20.531,20.531,0,0,0,2.628-1.173l.217,4.063a11.534,11.534,0,0,1-2.6,1.19,14.391,14.391,0,0,1-3.053.556,8.377,8.377,0,0,1-5.538-1.244,9.589,9.589,0,0,1-3.458-4.507,22.041,22.041,0,0,1-1.435-7.126,20.221,20.221,0,0,1,.786-7.2,11.228,11.228,0,0,1,3.168-5.113,9.006,9.006,0,0,1,5.43-2.212,11.531,11.531,0,0,1,3.211.182,11.208,11.208,0,0,1,3.019,1.06l-1.108,4.025a22.036,22.036,0,0,0-2.411-.942,6.294,6.294,0,0,0-2.495-.3" transform="translate(0 14.533)" fill="none" stroke="#f20505" stroke-width="1"/>
          <path id="パス_24-2" data-name="パス 24" d="M453,81.134l-3.76.972-1.931-11.6-9.224,2.383,1.931,11.6-3.76.973-4.35-26.126,3.761-.972L437.422,68.9l9.224-2.382L444.892,55.98l3.759-.973Z" transform="translate(0 13.513)" fill="none" stroke="#f20505" stroke-width="1"/>
          <path id="パス_25-2" data-name="パス 25" d="M473.935,73.594l-11.393,5.369-7.578-24.957,11.392-5.368,1.136,3.741-7.8,3.675,1.932,6.36,7.3-3.436,1.136,3.739-7.3,3.437,2.229,7.341,7.8-3.676Z" transform="translate(0 11.949)" fill="none" stroke="#f20505" stroke-width="1"/>
          <path id="パス_26-2" data-name="パス 26" d="M492.428,64.132l-10.8,7.006L471.733,47.47l10.8-7.006,1.482,3.548-7.4,4.8,2.521,6.033,6.919-4.487,1.482,3.548-6.919,4.487,2.909,6.961,7.4-4.8Z" transform="translate(0 9.941)" fill="none" stroke="#f20505" stroke-width="1"/>
          <path id="パス_27-2" data-name="パス 27" d="M506.616,47.387a8.246,8.246,0,0,1,.5,6.139,10.577,10.577,0,0,1-4.1,5.4,11.914,11.914,0,0,1-5.778,2.507l-1.828-3.862a21.153,21.153,0,0,0,3.128-.714,10.168,10.168,0,0,0,3.081-1.548,5.031,5.031,0,0,0,2.053-2.613,3.762,3.762,0,0,0-.235-2.669,2.453,2.453,0,0,0-2.057-1.547,15.428,15.428,0,0,0-3.745.255,12.057,12.057,0,0,1-2.861.172,5.564,5.564,0,0,1-2.726-.9,6.48,6.48,0,0,1-2.206-2.783,7.889,7.889,0,0,1-.512-5.828A9.519,9.519,0,0,1,493,34.439a12.7,12.7,0,0,1,2.935-1.634,13.852,13.852,0,0,1,3.09-.793l.509,4.093a16.863,16.863,0,0,0-2.666.658,8.6,8.6,0,0,0-2.326,1.231,4.225,4.225,0,0,0-1.691,2.24,3.462,3.462,0,0,0,.232,2.476,2.745,2.745,0,0,0,1.142,1.308,3.382,3.382,0,0,0,1.773.325q1.074-.05,2.7-.291a14.366,14.366,0,0,1,3.345-.179,5.087,5.087,0,0,1,2.593.916,6.529,6.529,0,0,1,1.98,2.6" transform="translate(0 7.864)" fill="none" stroke="#f20505" stroke-width="1"/>
          <path id="パス_28-2" data-name="パス 28" d="M525.625,44.928l-10.663,7.334L504.608,28.9l10.663-7.334,1.551,3.5-7.3,5.021,2.64,5.954,6.828-4.7,1.552,3.5-6.829,4.7,3.046,6.87,7.3-5.021Z" transform="translate(0 5.299)" fill="none" stroke="#f20505" stroke-width="1"/>
          <path id="パス_29-2" data-name="パス 29" d="M552.747,33.664l-3.733-5.846-7.6,3.361.086,7.456-3.847,1.7.219-28.526,4.128-1.824,14.6,21.98Zm-5.768-9.308-3.6-5.706q-.245-.407-.715-1.171t-.925-1.573q-.456-.811-.766-1.347.07.8.117,1.811c.034.674.064,1.307.1,1.9s.044,1.038.044,1.33l.062,7.267Z" transform="translate(0 2.453)" fill="none" stroke="#f20505" stroke-width="1"/>
          <path id="パス_30-2" data-name="パス 30" d="M566.174,7.569a5.7,5.7,0,0,0-4.016,3.683,13.933,13.933,0,0,0-.432,7.381,13.02,13.02,0,0,0,2.62,6.576,4.6,4.6,0,0,0,4.937,1.328,10.769,10.769,0,0,0,2.543-1.016,22.008,22.008,0,0,0,2.475-1.609l.66,3.99a12.453,12.453,0,0,1-2.443,1.619,15.009,15.009,0,0,1-2.963,1.068,8.168,8.168,0,0,1-5.623-.293,8.792,8.792,0,0,1-3.919-3.876,21.16,21.16,0,0,1-2.2-6.819,20.438,20.438,0,0,1-.008-7.267,12.1,12.1,0,0,1,2.579-5.6,9.674,9.674,0,0,1,5.137-3.113,11.62,11.62,0,0,1,3.2-.365,10.744,10.744,0,0,1,3.107.538l-.657,4.174a21.389,21.389,0,0,0-2.491-.523,6.311,6.311,0,0,0-2.506.128" transform="translate(0 0.798)" fill="none" stroke="#f20505" stroke-width="1"/>
          <path id="パス_31-2" data-name="パス 31" d="M594.565,26.974l-2.423-6.832-8.041.851-1.434,7.239-4.065.43,6.014-27.527L588.98.673l9.65,25.872ZM590.877,16.15l-2.32-6.657q-.153-.471-.454-1.358c-.2-.59-.393-1.2-.575-1.815s-.338-1.132-.466-1.545c-.065.533-.149,1.129-.255,1.791s-.2,1.283-.294,1.868-.167,1.018-.228,1.3l-1.417,7.05Z" transform="translate(0 0.166)" fill="none" stroke="#f20505" stroke-width="1"/>
          <path id="パス_32-2" data-name="パス 32" d="M620.987,13.417q-.084,6.766-3.156,10.123t-8.5,3.256l-6.03-.117L603.633,0l6.66.128a10.85,10.85,0,0,1,5.74,1.607,9.894,9.894,0,0,1,3.709,4.482,17.243,17.243,0,0,1,1.245,7.2m-4.021.072q.06-4.783-1.682-7.059a6.123,6.123,0,0,0-5.041-2.341l-2.82-.055-.234,18.72,2.31.046q7.348.142,7.467-9.311" transform="translate(0 0)" fill="none" stroke="#f20505" stroke-width="1"/>
          <path id="パス_33-2" data-name="パス 33" d="M639.275,29.223l-12.1-1.749L629.645.969l12.1,1.75-.37,3.971-8.285-1.2-.629,6.756,7.748,1.119-.37,3.972-7.748-1.12-.726,7.8,8.285,1.2Z" transform="translate(0 0.239)" fill="none" stroke="#f20505" stroke-width="1"/>
          <path id="パス_34-2" data-name="パス 34" d="M654.323,32.44,653.115,9.433,653,9.4q-.1.742-.331,2.074t-.518,2.884q-.282,1.551-.565,2.887l-2.831,13.368-3.336-1.1,5.464-25.8,5.163,1.7,1.16,22.063.117.039L667.3,9.11l5.164,1.7L667,36.606l-3.539-1.163,2.878-13.585q.259-1.228.613-2.678t.677-2.753q.323-1.306.505-2.019l-.116-.037L657.63,33.527Z" transform="translate(0 0.912)" fill="none" stroke="#f20505" stroke-width="1"/>
          <path id="パス_35-2" data-name="パス 35" d="M684.123,27.456l8.292-8.3,3.787,2.085L684.412,32.56l-3.371,9.5-3.512-1.933,3.31-9.331-1.155-18.654,3.814,2.1Z" transform="translate(0 2.983)" fill="none" stroke="#f20505" stroke-width="1"/>
          <path id="パス_36-2" data-name="パス 36" d="M706.981,55.879l-3.312-2.422,9.2-19.529-5.3-3.878,1.641-3.48,13.918,10.178-1.64,3.48-5.3-3.879Z" transform="translate(0 6.527)" fill="none" stroke="#f20505" stroke-width="1"/>
          <path id="パス_37-2" data-name="パス 37" d="M739.269,59.94a17.546,17.546,0,0,1-3.729,5.708,7.5,7.5,0,0,1-4.778,2.236,9.034,9.034,0,0,1-5.616-1.837,11.887,11.887,0,0,1-4.328-4.877,12.667,12.667,0,0,1-1.07-6.2,21.107,21.107,0,0,1,1.811-7.024,17.392,17.392,0,0,1,3.714-5.675,7.446,7.446,0,0,1,4.758-2.228,9.17,9.17,0,0,1,5.649,1.88,11.936,11.936,0,0,1,4.294,4.834,12.509,12.509,0,0,1,1.1,6.182,21,21,0,0,1-1.8,7.007M725.1,50.377a14.612,14.612,0,0,0-1.437,7.106,6.517,6.517,0,0,0,3.036,4.983q2.822,1.906,5.048.475t3.956-5.4a14.953,14.953,0,0,0,1.477-7.08,6.449,6.449,0,0,0-3.049-4.99q-2.77-1.87-5.035-.466t-4,5.377" transform="translate(0 9.832)" fill="none" stroke="#f20505" stroke-width="1"/>
          <path id="パス_38-2" data-name="パス 38" d="M757.8,81.131l-4.137-1.9L750.985,65.4l-2.437.99-2.735,9.218-3.6-1.658,7.424-25.028,3.6,1.659-3.494,11.778q.834-.652,1.689-1.274t1.718-1.262l7.854-5.666,4.08,1.877-10.638,7.613Z" transform="translate(0 12.02)" fill="none" stroke="#f20505" stroke-width="1"/>
          <path id="パス_39-2" data-name="パス 39" d="M773.268,68.741l6.7-10.3,4.054,1.044-9.609,14.164-1.688,10.173-3.761-.968,1.657-9.99-4.285-17.931,4.084,1.051Z" transform="translate(0 13.496)" fill="none" stroke="#f20505" stroke-width="1"/>
          <path id="パス_40-2" data-name="パス 40" d="M806.415,73.85a21.273,21.273,0,0,1-1.476,7.126,9.7,9.7,0,0,1-3.592,4.516,8.818,8.818,0,0,1-5.719,1.252,9.222,9.222,0,0,1-5.566-2.181,10.6,10.6,0,0,1-3.053-5.082,21.994,21.994,0,0,1-.708-7.324,21.128,21.128,0,0,1,1.474-7.088,9.635,9.635,0,0,1,3.576-4.5,8.945,8.945,0,0,1,5.762-1.229,9.277,9.277,0,0,1,5.523,2.159,10.453,10.453,0,0,1,3.069,5.047,21.845,21.845,0,0,1,.71,7.3M790.34,72.528a14.739,14.739,0,0,0,1.076,7.2,5.05,5.05,0,0,0,4.428,2.948,4.706,4.706,0,0,0,4.746-2.192,14.63,14.63,0,0,0,1.784-6.968,15.144,15.144,0,0,0-1.031-7.2,5.009,5.009,0,0,0-4.443-2.951,4.756,4.756,0,0,0-4.732,2.195,14.241,14.241,0,0,0-1.828,6.966" transform="translate(0 14.567)" fill="none" stroke="#f20505" stroke-width="1"/>
        </g>
      </g>
      <g id="グループ_130" data-name="グループ 130" transform="translate(-2689 1997.598)">
        <g id="グループ_64-3" data-name="グループ 64" transform="translate(0 0)" clip-path="url(#clip-path)">
          <path id="パス_5-3" data-name="パス 5" d="M9.823,63.548a5.186,5.186,0,0,0-4.439,2.83A13.53,13.53,0,0,0,4,73.576,13.844,13.844,0,0,0,5.74,80.593a4.894,4.894,0,0,0,4.7,2.3,10.136,10.136,0,0,0,2.641-.492,20.247,20.247,0,0,0,2.65-1.091l.137,4.07a11.376,11.376,0,0,1-2.62,1.109,14.318,14.318,0,0,1-3.063.458,8.431,8.431,0,0,1-5.511-1.414,9.75,9.75,0,0,1-3.368-4.614A22.27,22.27,0,0,1,.015,73.746a20.181,20.181,0,0,1,.931-7.174,11.069,11.069,0,0,1,3.271-5.015,8.9,8.9,0,0,1,5.47-2.042,11.538,11.538,0,0,1,3.207.282,11.369,11.369,0,0,1,3,1.153L14.7,64.94a22.409,22.409,0,0,0-2.392-1.015,6.315,6.315,0,0,0-2.489-.376" transform="translate(0 14.617)" fill="none" stroke="#f20505" stroke-width="1"/>
          <path id="パス_6-3" data-name="パス 6" d="M41.406,82.469l-3.784.815L36,71.611l-9.283,2L28.34,85.283l-3.785.815L20.906,59.807l3.784-.816L26.162,69.6l9.282-2L33.972,56.992l3.784-.815Z" transform="translate(0 13.801)" fill="none" stroke="#f20505" stroke-width="1"/>
          <path id="パス_7-3" data-name="パス 7" d="M62.562,75.744,51.02,80.592,44.175,55.309l11.542-4.848,1.026,3.788-7.9,3.32,1.744,6.445,7.392-3.1L59,64.7l-7.39,3.1,2.013,7.437,7.9-3.32Z" transform="translate(0 12.396)" fill="none" stroke="#f20505" stroke-width="1"/>
          <path id="パス_8-3" data-name="パス 8" d="M81.416,66.789l-10.95,6.644L61.087,49.446,72.036,42.8,73.442,46.4l-7.5,4.549,2.391,6.114,7.013-4.254,1.4,3.595-7.012,4.255L72.5,67.71,80,63.162Z" transform="translate(0 10.515)" fill="none" stroke="#f20505" stroke-width="1"/>
          <path id="パス_9-3" data-name="パス 9" d="M96.093,49.95a8.252,8.252,0,0,1,.473,6.142,10.544,10.544,0,0,1-4.124,5.365,11.9,11.9,0,0,1-5.79,2.465l-1.81-3.878a21.137,21.137,0,0,0,3.131-.689,10.1,10.1,0,0,0,3.089-1.525,5.009,5.009,0,0,0,2.066-2.6,3.761,3.761,0,0,0-.223-2.669A2.461,2.461,0,0,0,90.857,51a15.48,15.48,0,0,0-3.746.227,12.078,12.078,0,0,1-2.863.152,5.584,5.584,0,0,1-2.722-.926,6.509,6.509,0,0,1-2.192-2.8,7.89,7.89,0,0,1-.484-5.831,9.482,9.482,0,0,1,3.689-4.92,12.575,12.575,0,0,1,2.944-1.613,13.909,13.909,0,0,1,3.092-.771l.491,4.1a16.823,16.823,0,0,0-2.67.638,8.606,8.606,0,0,0-2.331,1.213,4.2,4.2,0,0,0-1.7,2.227,3.457,3.457,0,0,0,.219,2.478,2.748,2.748,0,0,0,1.136,1.318,3.38,3.38,0,0,0,1.771.338q1.074-.041,2.7-.272a14.458,14.458,0,0,1,3.346-.154,5.124,5.124,0,0,1,2.588.934,6.543,6.543,0,0,1,1.968,2.617" transform="translate(0 8.479)" fill="none" stroke="#f20505" stroke-width="1"/>
          <path id="パス_10-3" data-name="パス 10" d="M115,47.233l-10.574,7.531L93.8,31.6l10.574-7.53,1.593,3.47L98.724,32.7l2.71,5.9,6.77-4.822,1.594,3.47-6.772,4.823,3.127,6.812,7.241-5.157Z" transform="translate(0 5.913)" fill="none" stroke="#f20505" stroke-width="1"/>
          <path id="パス_11-3" data-name="パス 11" d="M141.863,35.1l-3.88-5.694-7.517,3.657.275,7.45-3.8,1.849-.507-28.519,4.08-1.986,15.149,21.394Zm-6-9.075-3.741-5.561q-.254-.4-.744-1.142t-.966-1.536q-.474-.792-.8-1.317.09.8.164,1.8t.144,1.9q.069.889.077,1.325l.249,7.261Z" transform="translate(0 2.913)" fill="none" stroke="#f20505" stroke-width="1"/>
          <path id="パス_12-3" data-name="パス 12" d="M154.586,8.7a5.8,5.8,0,0,0-3.924,3.834,13.967,13.967,0,0,0-.251,7.393q.849,4.436,2.78,6.474a4.555,4.555,0,0,0,4.967,1.139,10.89,10.89,0,0,0,2.517-1.112,22.25,22.25,0,0,0,2.434-1.7l.758,3.962a12.731,12.731,0,0,1-2.4,1.712,15.237,15.237,0,0,1-2.936,1.178A8.162,8.162,0,0,1,152.9,31.5a8.629,8.629,0,0,1-4.012-3.726,20.9,20.9,0,0,1-2.367-6.732,20.455,20.455,0,0,1-.187-7.263,12.287,12.287,0,0,1,2.441-5.7,9.827,9.827,0,0,1,5.058-3.306,11.607,11.607,0,0,1,3.191-.487,10.661,10.661,0,0,1,3.119.42l-.555,4.2a21.232,21.232,0,0,0-2.5-.43,6.3,6.3,0,0,0-2.5.224" transform="translate(0 1.053)" fill="none" stroke="#f20505" stroke-width="1"/>
          <path id="パス_13-3" data-name="パス 13" d="M183.412,27.267l-2.558-6.754-8.022,1.1-1.288,7.282-4.056.557,5.458-27.706,4.354-.6L187.468,26.71Zm-3.9-10.705-2.453-6.581q-.163-.467-.482-1.344t-.611-1.8q-.291-.919-.5-1.53c-.054.533-.126,1.134-.219,1.8s-.177,1.291-.256,1.878-.146,1.023-.2,1.305l-1.274,7.093Z" transform="translate(0 0.283)" fill="none" stroke="#f20505" stroke-width="1"/>
          <path id="パス_14-3" data-name="パス 14" d="M209.559,13.107q.031,6.766-2.982,10.207T198.135,26.8l-6.031.045L191.976.16l6.66-.05A10.749,10.749,0,0,1,204.4,1.561a9.753,9.753,0,0,1,3.786,4.382,17.151,17.151,0,0,1,1.371,7.164m-4.02.181q-.024-4.785-1.8-7.013a6.067,6.067,0,0,0-5.081-2.2l-2.82.021.091,18.721,2.31-.016q7.35-.056,7.3-9.509" transform="translate(0 0.027)" fill="none" stroke="#f20505" stroke-width="1"/>
          <path id="パス_15-3" data-name="パス 15" d="M228.167,28.493l-12.131-1.366L217.964.553l12.13,1.366L229.807,5.9,221.5,4.967l-.491,6.774,7.768.874-.289,3.982-7.768-.874-.568,7.815,8.307.935Z" transform="translate(0 0.136)" fill="none" stroke="#f20505" stroke-width="1"/>
          <path id="パス_16-3" data-name="パス 16" d="M243.329,31.3,241.545,8.353l-.116-.034q-.078.746-.28,2.086t-.445,2.9q-.241,1.56-.492,2.907l-2.5,13.472-3.362-.965,4.816-26,5.2,1.495,1.712,22.007.117.034,9.513-18.782,5.2,1.495-4.815,26-3.566-1.024,2.535-13.691q.229-1.239.547-2.7t.606-2.779q.291-1.317.455-2.035l-.118-.035-9.9,19.553Z" transform="translate(0 0.67)" fill="none" stroke="#f20505" stroke-width="1"/>
          <path id="パス_17-3" data-name="パス 17" d="M273.019,25.365l8.088-8.614,3.835,1.942-11.51,11.76-3.14,9.626-3.557-1.8,3.083-9.451-1.608-18.6,3.864,1.954Z" transform="translate(0 2.512)" fill="none" stroke="#f20505" stroke-width="1"/>
          <path id="パス_18-3" data-name="パス 18" d="M296.417,53.351l-3.328-2.387,9.073-19.624-5.33-3.823,1.617-3.5,13.987,10.034-1.617,3.5-5.33-3.823Z" transform="translate(0 5.901)" fill="none" stroke="#f20505" stroke-width="1"/>
          <path id="パス_19-3" data-name="パス 19" d="M328.5,57.676A17.307,17.307,0,0,1,324.69,63.3a7.42,7.42,0,0,1-4.809,2.13,9.091,9.091,0,0,1-5.59-1.961,12.029,12.029,0,0,1-4.256-4.971,12.705,12.705,0,0,1-.982-6.228,21.007,21.007,0,0,1,1.911-6.983,17.194,17.194,0,0,1,3.8-5.591,7.383,7.383,0,0,1,4.788-2.124,9.236,9.236,0,0,1,5.621,2,12.081,12.081,0,0,1,4.225,4.929,12.544,12.544,0,0,1,1.01,6.2,20.855,20.855,0,0,1-1.9,6.967M314.475,47.8a14.534,14.534,0,0,0-1.538,7.074,6.574,6.574,0,0,0,2.964,5.047q2.795,1.969,5.041.588t4.032-5.316a14.887,14.887,0,0,0,1.577-7.045,6.513,6.513,0,0,0-2.977-5.059q-2.742-1.93-5.028-.578T314.475,47.8" transform="translate(0 9.229)" fill="none" stroke="#f20505" stroke-width="1"/>
          <path id="パス_20-3" data-name="パス 20" d="M346.275,79.51l-4.08-2.086-2.283-13.933-2.463.882-3,9.091L330.9,71.648l8.135-24.683,3.552,1.816L338.759,60.4q.852-.613,1.725-1.2c.582-.387,1.166-.784,1.752-1.183l8.011-5.315,4.024,2.058-10.849,7.135Z" transform="translate(0 11.538)" fill="none" stroke="#f20505" stroke-width="1"/>
          <path id="パス_21-3" data-name="パス 21" d="M362.052,67.681l6.984-10L373.06,58.9l-10,13.738-1.971,10.1L357.358,81.6l1.935-9.913-3.782-18.106,4.052,1.227Z" transform="translate(0 13.164)" fill="none" stroke="#f20505" stroke-width="1"/>
          <path id="パス_22-3" data-name="パス 22" d="M395.025,73.781a21.143,21.143,0,0,1-1.628,7.074,9.547,9.547,0,0,1-3.688,4.395,8.77,8.77,0,0,1-5.744,1.061,9.342,9.342,0,0,1-5.517-2.368,10.761,10.761,0,0,1-2.943-5.182,22.072,22.072,0,0,1-.55-7.344,20.966,20.966,0,0,1,1.626-7.037A9.465,9.465,0,0,1,380.252,60a8.863,8.863,0,0,1,5.787-1.036,9.382,9.382,0,0,1,5.474,2.341,10.613,10.613,0,0,1,2.96,5.147,21.937,21.937,0,0,1,.552,7.327m-16.041-1.86a14.826,14.826,0,0,0,.921,7.239,5.136,5.136,0,0,0,4.363,3.1,4.656,4.656,0,0,0,4.792-2.034,14.506,14.506,0,0,0,1.933-6.907,15.236,15.236,0,0,0-.876-7.232,5.085,5.085,0,0,0-4.378-3.1,4.7,4.7,0,0,0-4.777,2.035,14.116,14.116,0,0,0-1.978,6.9" transform="translate(0 14.464)" fill="none" stroke="#f20505" stroke-width="1"/>
          <path id="パス_23-3" data-name="パス 23" d="M421,63.227a5.257,5.257,0,0,0-4.382,2.967,13.621,13.621,0,0,0-1.235,7.237,13.749,13.749,0,0,0,1.876,6.959A4.841,4.841,0,0,0,422,82.545a10.257,10.257,0,0,0,2.631-.575,20.531,20.531,0,0,0,2.628-1.173l.217,4.063a11.534,11.534,0,0,1-2.6,1.19,14.391,14.391,0,0,1-3.053.556,8.377,8.377,0,0,1-5.538-1.244,9.589,9.589,0,0,1-3.458-4.507,22.041,22.041,0,0,1-1.435-7.126,20.221,20.221,0,0,1,.786-7.2,11.228,11.228,0,0,1,3.168-5.113,9.006,9.006,0,0,1,5.43-2.212,11.531,11.531,0,0,1,3.211.182,11.208,11.208,0,0,1,3.019,1.06l-1.108,4.025a22.036,22.036,0,0,0-2.411-.942,6.294,6.294,0,0,0-2.495-.3" transform="translate(0 14.533)" fill="none" stroke="#f20505" stroke-width="1"/>
          <path id="パス_24-3" data-name="パス 24" d="M453,81.134l-3.76.972-1.931-11.6-9.224,2.383,1.931,11.6-3.76.973-4.35-26.126,3.761-.972L437.422,68.9l9.224-2.382L444.892,55.98l3.759-.973Z" transform="translate(0 13.513)" fill="none" stroke="#f20505" stroke-width="1"/>
          <path id="パス_25-3" data-name="パス 25" d="M473.935,73.594l-11.393,5.369-7.578-24.957,11.392-5.368,1.136,3.741-7.8,3.675,1.932,6.36,7.3-3.436,1.136,3.739-7.3,3.437,2.229,7.341,7.8-3.676Z" transform="translate(0 11.949)" fill="none" stroke="#f20505" stroke-width="1"/>
          <path id="パス_26-3" data-name="パス 26" d="M492.428,64.132l-10.8,7.006L471.733,47.47l10.8-7.006,1.482,3.548-7.4,4.8,2.521,6.033,6.919-4.487,1.482,3.548-6.919,4.487,2.909,6.961,7.4-4.8Z" transform="translate(0 9.941)" fill="none" stroke="#f20505" stroke-width="1"/>
          <path id="パス_27-3" data-name="パス 27" d="M506.616,47.387a8.246,8.246,0,0,1,.5,6.139,10.577,10.577,0,0,1-4.1,5.4,11.914,11.914,0,0,1-5.778,2.507l-1.828-3.862a21.153,21.153,0,0,0,3.128-.714,10.168,10.168,0,0,0,3.081-1.548,5.031,5.031,0,0,0,2.053-2.613,3.762,3.762,0,0,0-.235-2.669,2.453,2.453,0,0,0-2.057-1.547,15.428,15.428,0,0,0-3.745.255,12.057,12.057,0,0,1-2.861.172,5.564,5.564,0,0,1-2.726-.9,6.48,6.48,0,0,1-2.206-2.783,7.889,7.889,0,0,1-.512-5.828A9.519,9.519,0,0,1,493,34.439a12.7,12.7,0,0,1,2.935-1.634,13.852,13.852,0,0,1,3.09-.793l.509,4.093a16.863,16.863,0,0,0-2.666.658,8.6,8.6,0,0,0-2.326,1.231,4.225,4.225,0,0,0-1.691,2.24,3.462,3.462,0,0,0,.232,2.476,2.745,2.745,0,0,0,1.142,1.308,3.382,3.382,0,0,0,1.773.325q1.074-.05,2.7-.291a14.366,14.366,0,0,1,3.345-.179,5.087,5.087,0,0,1,2.593.916,6.529,6.529,0,0,1,1.98,2.6" transform="translate(0 7.864)" fill="none" stroke="#f20505" stroke-width="1"/>
          <path id="パス_28-3" data-name="パス 28" d="M525.625,44.928l-10.663,7.334L504.608,28.9l10.663-7.334,1.551,3.5-7.3,5.021,2.64,5.954,6.828-4.7,1.552,3.5-6.829,4.7,3.046,6.87,7.3-5.021Z" transform="translate(0 5.299)" fill="none" stroke="#f20505" stroke-width="1"/>
          <path id="パス_29-3" data-name="パス 29" d="M552.747,33.664l-3.733-5.846-7.6,3.361.086,7.456-3.847,1.7.219-28.526,4.128-1.824,14.6,21.98Zm-5.768-9.308-3.6-5.706q-.245-.407-.715-1.171t-.925-1.573q-.456-.811-.766-1.347.07.8.117,1.811c.034.674.064,1.307.1,1.9s.044,1.038.044,1.33l.062,7.267Z" transform="translate(0 2.453)" fill="none" stroke="#f20505" stroke-width="1"/>
          <path id="パス_30-3" data-name="パス 30" d="M566.174,7.569a5.7,5.7,0,0,0-4.016,3.683,13.933,13.933,0,0,0-.432,7.381,13.02,13.02,0,0,0,2.62,6.576,4.6,4.6,0,0,0,4.937,1.328,10.769,10.769,0,0,0,2.543-1.016,22.008,22.008,0,0,0,2.475-1.609l.66,3.99a12.453,12.453,0,0,1-2.443,1.619,15.009,15.009,0,0,1-2.963,1.068,8.168,8.168,0,0,1-5.623-.293,8.792,8.792,0,0,1-3.919-3.876,21.16,21.16,0,0,1-2.2-6.819,20.438,20.438,0,0,1-.008-7.267,12.1,12.1,0,0,1,2.579-5.6,9.674,9.674,0,0,1,5.137-3.113,11.62,11.62,0,0,1,3.2-.365,10.744,10.744,0,0,1,3.107.538l-.657,4.174a21.389,21.389,0,0,0-2.491-.523,6.311,6.311,0,0,0-2.506.128" transform="translate(0 0.798)" fill="none" stroke="#f20505" stroke-width="1"/>
          <path id="パス_31-3" data-name="パス 31" d="M594.565,26.974l-2.423-6.832-8.041.851-1.434,7.239-4.065.43,6.014-27.527L588.98.673l9.65,25.872ZM590.877,16.15l-2.32-6.657q-.153-.471-.454-1.358c-.2-.59-.393-1.2-.575-1.815s-.338-1.132-.466-1.545c-.065.533-.149,1.129-.255,1.791s-.2,1.283-.294,1.868-.167,1.018-.228,1.3l-1.417,7.05Z" transform="translate(0 0.166)" fill="none" stroke="#f20505" stroke-width="1"/>
          <path id="パス_32-3" data-name="パス 32" d="M620.987,13.417q-.084,6.766-3.156,10.123t-8.5,3.256l-6.03-.117L603.633,0l6.66.128a10.85,10.85,0,0,1,5.74,1.607,9.894,9.894,0,0,1,3.709,4.482,17.243,17.243,0,0,1,1.245,7.2m-4.021.072q.06-4.783-1.682-7.059a6.123,6.123,0,0,0-5.041-2.341l-2.82-.055-.234,18.72,2.31.046q7.348.142,7.467-9.311" transform="translate(0 0)" fill="none" stroke="#f20505" stroke-width="1"/>
          <path id="パス_33-3" data-name="パス 33" d="M639.275,29.223l-12.1-1.749L629.645.969l12.1,1.75-.37,3.971-8.285-1.2-.629,6.756,7.748,1.119-.37,3.972-7.748-1.12-.726,7.8,8.285,1.2Z" transform="translate(0 0.239)" fill="none" stroke="#f20505" stroke-width="1"/>
          <path id="パス_34-3" data-name="パス 34" d="M654.323,32.44,653.115,9.433,653,9.4q-.1.742-.331,2.074t-.518,2.884q-.282,1.551-.565,2.887l-2.831,13.368-3.336-1.1,5.464-25.8,5.163,1.7,1.16,22.063.117.039L667.3,9.11l5.164,1.7L667,36.606l-3.539-1.163,2.878-13.585q.259-1.228.613-2.678t.677-2.753q.323-1.306.505-2.019l-.116-.037L657.63,33.527Z" transform="translate(0 0.912)" fill="none" stroke="#f20505" stroke-width="1"/>
          <path id="パス_35-3" data-name="パス 35" d="M684.123,27.456l8.292-8.3,3.787,2.085L684.412,32.56l-3.371,9.5-3.512-1.933,3.31-9.331-1.155-18.654,3.814,2.1Z" transform="translate(0 2.983)" fill="none" stroke="#f20505" stroke-width="1"/>
          <path id="パス_36-3" data-name="パス 36" d="M706.981,55.879l-3.312-2.422,9.2-19.529-5.3-3.878,1.641-3.48,13.918,10.178-1.64,3.48-5.3-3.879Z" transform="translate(0 6.527)" fill="none" stroke="#f20505" stroke-width="1"/>
          <path id="パス_37-3" data-name="パス 37" d="M739.269,59.94a17.546,17.546,0,0,1-3.729,5.708,7.5,7.5,0,0,1-4.778,2.236,9.034,9.034,0,0,1-5.616-1.837,11.887,11.887,0,0,1-4.328-4.877,12.667,12.667,0,0,1-1.07-6.2,21.107,21.107,0,0,1,1.811-7.024,17.392,17.392,0,0,1,3.714-5.675,7.446,7.446,0,0,1,4.758-2.228,9.17,9.17,0,0,1,5.649,1.88,11.936,11.936,0,0,1,4.294,4.834,12.509,12.509,0,0,1,1.1,6.182,21,21,0,0,1-1.8,7.007M725.1,50.377a14.612,14.612,0,0,0-1.437,7.106,6.517,6.517,0,0,0,3.036,4.983q2.822,1.906,5.048.475t3.956-5.4a14.953,14.953,0,0,0,1.477-7.08,6.449,6.449,0,0,0-3.049-4.99q-2.77-1.87-5.035-.466t-4,5.377" transform="translate(0 9.832)" fill="none" stroke="#f20505" stroke-width="1"/>
          <path id="パス_38-3" data-name="パス 38" d="M757.8,81.131l-4.137-1.9L750.985,65.4l-2.437.99-2.735,9.218-3.6-1.658,7.424-25.028,3.6,1.659-3.494,11.778q.834-.652,1.689-1.274t1.718-1.262l7.854-5.666,4.08,1.877-10.638,7.613Z" transform="translate(0 12.02)" fill="none" stroke="#f20505" stroke-width="1"/>
          <path id="パス_39-3" data-name="パス 39" d="M773.268,68.741l6.7-10.3,4.054,1.044-9.609,14.164-1.688,10.173-3.761-.968,1.657-9.99-4.285-17.931,4.084,1.051Z" transform="translate(0 13.496)" fill="none" stroke="#f20505" stroke-width="1"/>
          <path id="パス_40-3" data-name="パス 40" d="M806.415,73.85a21.273,21.273,0,0,1-1.476,7.126,9.7,9.7,0,0,1-3.592,4.516,8.818,8.818,0,0,1-5.719,1.252,9.222,9.222,0,0,1-5.566-2.181,10.6,10.6,0,0,1-3.053-5.082,21.994,21.994,0,0,1-.708-7.324,21.128,21.128,0,0,1,1.474-7.088,9.635,9.635,0,0,1,3.576-4.5,8.945,8.945,0,0,1,5.762-1.229,9.277,9.277,0,0,1,5.523,2.159,10.453,10.453,0,0,1,3.069,5.047,21.845,21.845,0,0,1,.71,7.3M790.34,72.528a14.739,14.739,0,0,0,1.076,7.2,5.05,5.05,0,0,0,4.428,2.948,4.706,4.706,0,0,0,4.746-2.192,14.63,14.63,0,0,0,1.784-6.968,15.144,15.144,0,0,0-1.031-7.2,5.009,5.009,0,0,0-4.443-2.951,4.756,4.756,0,0,0-4.732,2.195,14.241,14.241,0,0,0-1.828,6.966" transform="translate(0 14.567)" fill="none" stroke="#f20505" stroke-width="1"/>
        </g>
      </g>
    </g>
  </g>
</svg>
