<svg xmlns="http://www.w3.org/2000/svg" xmlns:xlink="http://www.w3.org/1999/xlink" width="2439.371" height="100" viewBox="0 0 2439.371 100">
  <defs>
    <clipPath id="clip-path">
      <rect id="長方形_26" data-name="長方形 26" width="806.457" height="100" fill="none" stroke="#f20505" stroke-width="1"/>
    </clipPath>
  </defs>
  <g id="グループ_129" data-name="グループ 129" transform="translate(2446.457 -3680.455)">
    <g id="グループ_116" data-name="グループ 116" transform="translate(-1630 3680.455)">
      <g id="グループ_66" data-name="グループ 66" transform="translate(0 0)" clip-path="url(#clip-path)">
        <path id="パス_41" data-name="パス 41" d="M796.634,23.049a5.194,5.194,0,0,0,4.439-2.786,13.145,13.145,0,0,0,1.38-7.086,13.464,13.464,0,0,0-1.736-6.908,4.919,4.919,0,0,0-4.7-2.261,10.278,10.278,0,0,0-2.641.484,20.429,20.429,0,0,0-2.65,1.074l-.137-4.006a11.474,11.474,0,0,1,2.62-1.091,14.527,14.527,0,0,1,3.063-.451,8.531,8.531,0,0,1,5.511,1.392,9.611,9.611,0,0,1,3.368,4.542,21.622,21.622,0,0,1,1.292,7.057,19.58,19.58,0,0,1-.931,7.062,10.885,10.885,0,0,1-3.271,4.937,8.986,8.986,0,0,1-5.47,2.01,11.714,11.714,0,0,1-3.207-.277,11.479,11.479,0,0,1-3-1.136l1.187-3.927a22.6,22.6,0,0,0,2.392,1,6.406,6.406,0,0,0,2.489.37" transform="translate(0 0)" fill="none" stroke="#f20505" stroke-width="1"/>
        <path id="パス_42" data-name="パス 42" d="M765.051,4.92l3.784-.8,1.62,11.492,9.283-1.968L778.117,2.15l3.785-.8,3.649,25.883-3.784.8L780.3,17.593l-9.282,1.968L772.485,30l-3.784.8Z" transform="translate(0 0.305)" fill="none" stroke="#f20505" stroke-width="1"/>
        <path id="パス_43" data-name="パス 43" d="M743.9,11.668l11.542-4.773,6.845,24.891L750.74,36.558l-1.026-3.729,7.9-3.268-1.744-6.345-7.392,3.056-1.025-3.73,7.39-3.056-2.013-7.321-7.9,3.268Z" transform="translate(0 1.561)" fill="none" stroke="#f20505" stroke-width="1"/>
        <path id="パス_44" data-name="パス 44" d="M725.041,20.693l10.95-6.541,9.379,23.615-10.949,6.541-1.406-3.539,7.5-4.479-2.391-6.019-7.013,4.188L729.7,30.921l7.012-4.189-2.759-6.945-7.5,4.477Z" transform="translate(0 3.203)" fill="none" stroke="#f20505" stroke-width="1"/>
        <path id="パス_45" data-name="パス 45" d="M710.364,37.177a8.008,8.008,0,0,1-.473-6.047,10.4,10.4,0,0,1,4.124-5.282,12,12,0,0,1,5.79-2.427l1.81,3.818a21.425,21.425,0,0,0-3.131.678,10.164,10.164,0,0,0-3.089,1.5,4.943,4.943,0,0,0-2.066,2.558,3.65,3.65,0,0,0,.223,2.628,2.457,2.457,0,0,0,2.048,1.54,15.72,15.72,0,0,0,3.746-.223,12.265,12.265,0,0,1,2.863-.15,5.643,5.643,0,0,1,2.722.911,6.427,6.427,0,0,1,2.192,2.757,7.658,7.658,0,0,1,.484,5.74,9.349,9.349,0,0,1-3.689,4.844,12.637,12.637,0,0,1-2.944,1.588,14.089,14.089,0,0,1-3.092.759l-.491-4.033a17.044,17.044,0,0,0,2.67-.628,8.656,8.656,0,0,0,2.331-1.194,4.143,4.143,0,0,0,1.7-2.193,3.355,3.355,0,0,0-.219-2.439,2.719,2.719,0,0,0-1.136-1.3,3.426,3.426,0,0,0-1.771-.332q-1.074.04-2.7.267a14.684,14.684,0,0,1-3.346.152,5.175,5.175,0,0,1-2.588-.92,6.455,6.455,0,0,1-1.968-2.576" transform="translate(0 5.301)" fill="none" stroke="#f20505" stroke-width="1"/>
        <path id="パス_46" data-name="パス 46" d="M691.455,40.248l10.574-7.414,10.632,22.8-10.574,7.413-1.593-3.417,7.239-5.077-2.71-5.813-6.77,4.747-1.594-3.417,6.772-4.748L700.3,38.621,693.063,43.7Z" transform="translate(0 7.431)" fill="none" stroke="#f20505" stroke-width="1"/>
        <path id="パス_47" data-name="パス 47" d="M664.594,52.348l3.88,5.605,7.517-3.6-.275-7.335,3.8-1.82.507,28.077-4.08,1.955L660.794,54.168Zm6,8.934,3.741,5.474q.254.392.744,1.125t.966,1.512q.474.78.8,1.3-.09-.787-.164-1.777t-.144-1.868q-.069-.876-.077-1.3l-.249-7.148Z" transform="translate(0 10.23)" fill="none" stroke="#f20505" stroke-width="1"/>
        <path id="パス_48" data-name="パス 48" d="M651.871,77.958a5.764,5.764,0,0,0,3.924-3.775,13.545,13.545,0,0,0,.251-7.278q-.849-4.367-2.78-6.373a4.6,4.6,0,0,0-4.967-1.121,10.977,10.977,0,0,0-2.517,1.1,22.262,22.262,0,0,0-2.434,1.675l-.758-3.9a12.73,12.73,0,0,1,2.4-1.685,15.375,15.375,0,0,1,2.936-1.16,8.283,8.283,0,0,1,5.628.076,8.58,8.58,0,0,1,4.012,3.668,20.367,20.367,0,0,1,2.367,6.627,19.83,19.83,0,0,1,.187,7.151,12,12,0,0,1-2.441,5.61,9.84,9.84,0,0,1-5.058,3.255,11.776,11.776,0,0,1-3.191.479,10.819,10.819,0,0,1-3.119-.413l.555-4.133a21.538,21.538,0,0,0,2.5.423,6.4,6.4,0,0,0,2.5-.221" transform="translate(0 12.444)" fill="none" stroke="#f20505" stroke-width="1"/>
        <path id="パス_49" data-name="パス 49" d="M623.045,59.826l2.558,6.649,8.022-1.083,1.288-7.169,4.056-.548-5.458,27.276-4.354.587L618.989,60.374Zm3.9,10.539,2.453,6.479q.164.46.482,1.323t.611,1.768q.291.905.5,1.506c.054-.525.126-1.116.219-1.768s.177-1.27.256-1.849.146-1.007.2-1.285l1.274-6.983Z" transform="translate(0 13.053)" fill="none" stroke="#f20505" stroke-width="1"/>
        <path id="パス_50" data-name="パス 50" d="M596.9,73.5q-.03-6.661,2.982-10.048t8.443-3.429l6.031-.044.128,26.268-6.661.049a10.882,10.882,0,0,1-5.766-1.429,9.654,9.654,0,0,1-3.786-4.314A16.673,16.673,0,0,1,596.9,73.5m4.021-.178q.024,4.711,1.8,6.9a6.11,6.11,0,0,0,5.081,2.169l2.82-.021-.091-18.43-2.31.016q-7.348.055-7.3,9.362" transform="translate(0 13.574)" fill="none" stroke="#f20505" stroke-width="1"/>
        <path id="パス_51" data-name="パス 51" d="M578.291,58.561l12.131,1.345-1.929,26.161-12.13-1.345.288-3.919,8.307.92.491-6.669-7.768-.861.289-3.921,7.768.861.568-7.694L578,62.519Z" transform="translate(0 13.254)" fill="none" stroke="#f20505" stroke-width="1"/>
        <path id="パス_52" data-name="パス 52" d="M563.128,56.547l1.784,22.591.116.033q.078-.734.28-2.054t.445-2.857q.242-1.536.492-2.862l2.495-13.263,3.362.95L567.286,84.68l-5.2-1.472-1.712-21.665-.117-.033L550.741,80l-5.2-1.472,4.815-25.6,3.566,1.008-2.535,13.478q-.229,1.22-.547,2.659t-.606,2.736q-.291,1.3-.455,2l.118.034,9.9-19.249Z" transform="translate(0 11.98)" fill="none" stroke="#f20505" stroke-width="1"/>
        <path id="パス_53" data-name="パス 53" d="M533.438,61.839l-8.088,8.48-3.835-1.912,11.51-11.578,3.14-9.477,3.557,1.774-3.083,9.3,1.608,18.313-3.864-1.924Z" transform="translate(0 10.717)" fill="none" stroke="#f20505" stroke-width="1"/>
        <path id="パス_54" data-name="パス 54" d="M510.041,33.978l3.328,2.35L504.3,55.647l5.33,3.764-1.617,3.444-13.987-9.878,1.617-3.442,5.33,3.764Z" transform="translate(0 7.69)" fill="none" stroke="#f20505" stroke-width="1"/>
        <path id="パス_55" data-name="パス 55" d="M477.958,29.245a17.032,17.032,0,0,1,3.809-5.536,7.476,7.476,0,0,1,4.809-2.1,9.184,9.184,0,0,1,5.59,1.93,11.893,11.893,0,0,1,4.256,4.894,12.334,12.334,0,0,1,.982,6.132,20.431,20.431,0,0,1-1.911,6.875,16.921,16.921,0,0,1-3.8,5.5,7.438,7.438,0,0,1-4.788,2.091,9.329,9.329,0,0,1-5.621-1.973,11.945,11.945,0,0,1-4.225-4.853,12.179,12.179,0,0,1-1.01-6.108,20.282,20.282,0,0,1,1.9-6.859m14.024,9.722A14.121,14.121,0,0,0,493.52,32a6.454,6.454,0,0,0-2.964-4.969q-2.795-1.939-5.041-.579t-4.032,5.234a14.466,14.466,0,0,0-1.577,6.936,6.394,6.394,0,0,0,2.977,4.98q2.742,1.9,5.028.569t4.071-5.207" transform="translate(0 4.89)" fill="none" stroke="#f20505" stroke-width="1"/>
        <path id="パス_56" data-name="パス 56" d="M460.182,8.453l4.08,2.054,2.283,13.716,2.463-.868,3-8.95,3.552,1.788-8.135,24.3-3.552-1.788L467.7,27.271q-.852.6-1.725,1.18c-.582.381-1.166.771-1.752,1.165l-8.011,5.233-4.024-2.026L463.035,25.8Z" transform="translate(0 1.913)" fill="none" stroke="#f20505" stroke-width="1"/>
        <path id="パス_57" data-name="パス 57" d="M444.4,19.378l-6.984,9.844-4.024-1.2,10-13.525,1.971-9.939L449.1,5.672l-1.935,9.759,3.782,17.825-4.052-1.208Z" transform="translate(0 1.032)" fill="none" stroke="#f20505" stroke-width="1"/>
        <path id="パス_58" data-name="パス 58" d="M411.432,12.995A20.546,20.546,0,0,1,413.06,6.03,9.439,9.439,0,0,1,416.748,1.7,8.886,8.886,0,0,1,422.492.659a9.414,9.414,0,0,1,5.517,2.331,10.556,10.556,0,0,1,2.943,5.1,21.4,21.4,0,0,1,.55,7.23,20.375,20.375,0,0,1-1.626,6.927,9.357,9.357,0,0,1-3.671,4.309,8.982,8.982,0,0,1-5.787,1.02,9.456,9.456,0,0,1-5.474-2.3,10.413,10.413,0,0,1-2.96-5.067,21.272,21.272,0,0,1-.552-7.213m16.041,1.831a14.388,14.388,0,0,0-.921-7.126,5.132,5.132,0,0,0-4.363-3.047,4.687,4.687,0,0,0-4.792,2,14.117,14.117,0,0,0-1.933,6.8,14.785,14.785,0,0,0,.876,7.12,5.081,5.081,0,0,0,4.378,3.05,4.73,4.73,0,0,0,4.777-2,13.74,13.74,0,0,0,1.978-6.8" transform="translate(0 0.131)" fill="none" stroke="#f20505" stroke-width="1"/>
        <path id="パス_59" data-name="パス 59" d="M385.458,23.375a5.257,5.257,0,0,0,4.381-2.921,13.237,13.237,0,0,0,1.236-7.125A13.369,13.369,0,0,0,389.2,6.477a4.869,4.869,0,0,0-4.745-2.12,10.4,10.4,0,0,0-2.631.567,20.757,20.757,0,0,0-2.628,1.155l-.217-4a11.641,11.641,0,0,1,2.6-1.171,14.606,14.606,0,0,1,3.053-.547,8.485,8.485,0,0,1,5.539,1.225,9.468,9.468,0,0,1,3.458,4.437,21.432,21.432,0,0,1,1.435,7.016,19.636,19.636,0,0,1-.787,7.089,11.03,11.03,0,0,1-3.168,5.034,9.081,9.081,0,0,1-5.429,2.178,11.717,11.717,0,0,1-3.212-.179,11.337,11.337,0,0,1-3.019-1.044l1.108-3.962a22.324,22.324,0,0,0,2.411.927,6.39,6.39,0,0,0,2.5.293" transform="translate(0 0.073)" fill="none" stroke="#f20505" stroke-width="1"/>
        <path id="パス_60" data-name="パス 60" d="M353.456,6.349l3.76-.957,1.931,11.419,9.224-2.346L366.44,3.048l3.76-.958,4.35,25.721-3.761.957-1.754-10.375-9.224,2.345,1.754,10.375-3.759.958Z" transform="translate(0 0.473)" fill="none" stroke="#f20505" stroke-width="1"/>
        <path id="パス_61" data-name="パス 61" d="M332.522,13.847l11.393-5.285,7.578,24.569L340.1,38.415l-1.136-3.683,7.8-3.618-1.932-6.262-7.3,3.382L336.4,24.554l7.3-3.383-2.229-7.227-7.8,3.619Z" transform="translate(0 1.938)" fill="none" stroke="#f20505" stroke-width="1"/>
        <path id="パス_62" data-name="パス 62" d="M314.029,23.353l10.8-6.9,9.891,23.3-10.8,6.9-1.482-3.493,7.4-4.721L327.314,32.5l-6.919,4.417-1.482-3.493,6.919-4.417-2.909-6.853-7.4,4.723Z" transform="translate(0 3.725)" fill="none" stroke="#f20505" stroke-width="1"/>
        <path id="パス_63" data-name="パス 63" d="M299.841,39.741a8,8,0,0,1-.5-6.043,10.43,10.43,0,0,1,4.1-5.312,12.012,12.012,0,0,1,5.778-2.469l1.828,3.8a21.437,21.437,0,0,0-3.128.7,10.231,10.231,0,0,0-3.081,1.524,4.964,4.964,0,0,0-2.053,2.573,3.651,3.651,0,0,0,.235,2.628,2.449,2.449,0,0,0,2.057,1.523,15.666,15.666,0,0,0,3.745-.251,12.244,12.244,0,0,1,2.861-.169,5.623,5.623,0,0,1,2.726.89,6.4,6.4,0,0,1,2.206,2.74,7.657,7.657,0,0,1,.512,5.738,9.382,9.382,0,0,1-3.665,4.872,12.761,12.761,0,0,1-2.935,1.609,14.029,14.029,0,0,1-3.09.781l-.509-4.03a17.084,17.084,0,0,0,2.666-.647,8.641,8.641,0,0,0,2.326-1.212,4.166,4.166,0,0,0,1.691-2.2,3.36,3.36,0,0,0-.232-2.438,2.717,2.717,0,0,0-1.142-1.288,3.428,3.428,0,0,0-1.773-.32q-1.074.05-2.7.287a14.589,14.589,0,0,1-3.345.177,5.138,5.138,0,0,1-2.593-.9,6.442,6.442,0,0,1-1.98-2.561" transform="translate(0 5.866)" fill="none" stroke="#f20505" stroke-width="1"/>
        <path id="パス_64" data-name="パス 64" d="M280.832,42.556,291.5,35.335,301.849,58.33l-10.663,7.221L289.635,62.1l7.3-4.943L294.3,51.3l-6.828,4.623-1.552-3.445,6.829-4.624L289.7,41.091l-7.3,4.943Z" transform="translate(0 7.997)" fill="none" stroke="#f20505" stroke-width="1"/>
        <path id="パス_65" data-name="パス 65" d="M253.709,53.763l3.733,5.755,7.606-3.309-.086-7.341,3.846-1.671-.219,28.083-4.128,1.8-14.6-21.638Zm5.769,9.163,3.6,5.618q.245.4.715,1.153t.926,1.549q.454.8.765,1.326-.069-.789-.117-1.783t-.1-1.87c-.031-.586-.045-1.022-.044-1.31l-.063-7.154Z" transform="translate(0 10.682)" fill="none" stroke="#f20505" stroke-width="1"/>
        <path id="パス_66" data-name="パス 66" d="M240.283,79.074a5.67,5.67,0,0,0,4.016-3.626,13.515,13.515,0,0,0,.432-7.266,12.712,12.712,0,0,0-2.62-6.474,4.642,4.642,0,0,0-4.937-1.307,10.869,10.869,0,0,0-2.543,1,22.042,22.042,0,0,0-2.475,1.584l-.66-3.928a12.47,12.47,0,0,1,2.443-1.594,15.163,15.163,0,0,1,2.963-1.051,8.288,8.288,0,0,1,5.623.288,8.729,8.729,0,0,1,3.919,3.816,20.606,20.606,0,0,1,2.2,6.713,19.815,19.815,0,0,1,.008,7.154,11.833,11.833,0,0,1-2.579,5.516,9.7,9.7,0,0,1-5.137,3.065,11.794,11.794,0,0,1-3.2.359,10.9,10.9,0,0,1-3.107-.53l.657-4.109a21.682,21.682,0,0,0,2.491.515,6.408,6.408,0,0,0,2.506-.126" transform="translate(0 12.689)" fill="none" stroke="#f20505" stroke-width="1"/>
        <path id="パス_67" data-name="パス 67" d="M211.892,60.064l2.423,6.726,8.041-.838,1.434-7.126,4.065-.423-6.014,27.1-4.364.454-9.65-25.471ZM215.58,70.72l2.32,6.553q.153.464.454,1.337c.2.581.393,1.178.575,1.787s.338,1.115.466,1.521c.065-.525.149-1.111.255-1.763s.2-1.263.294-1.839.167-1,.228-1.279l1.417-6.941Z" transform="translate(0 13.218)" fill="none" stroke="#f20505" stroke-width="1"/>
        <path id="パス_68" data-name="パス 68" d="M185.47,73.205q.084-6.661,3.156-9.966t8.5-3.206l6.03.115-.334,26.265-6.66-.126a10.978,10.978,0,0,1-5.74-1.582,9.778,9.778,0,0,1-3.709-4.412,16.742,16.742,0,0,1-1.245-7.088m4.021-.071q-.06,4.709,1.682,6.95a6.161,6.161,0,0,0,5.041,2.3l2.82.054.234-18.429-2.31-.045q-7.348-.14-7.467,9.167" transform="translate(0 13.586)" fill="none" stroke="#f20505" stroke-width="1"/>
        <path id="パス_69" data-name="パス 69" d="M167.182,57.893l12.1,1.722-2.469,26.094-12.1-1.723.37-3.91,8.285,1.178L174,74.6l-7.748-1.1.37-3.911,7.748,1.1.726-7.674-8.285-1.178Z" transform="translate(0 13.103)" fill="none" stroke="#f20505" stroke-width="1"/>
        <path id="パス_70" data-name="パス 70" d="M152.134,55.526l1.208,22.65.116.037q.1-.73.331-2.042t.518-2.839q.282-1.527.565-2.843L157.7,57.328l3.336,1.079-5.464,25.4-5.163-1.671-1.16-21.721-.117-.038-9.978,18.116-5.164-1.67,5.465-25.4L143,52.57l-2.878,13.374q-.26,1.209-.613,2.637t-.677,2.71q-.322,1.286-.5,1.988l.116.037,10.387-18.86Z" transform="translate(0 11.639)" fill="none" stroke="#f20505" stroke-width="1"/>
        <path id="パス_71" data-name="パス 71" d="M122.335,59.762l-8.292,8.176-3.787-2.053,11.79-11.147,3.371-9.354,3.512,1.9-3.31,9.186,1.155,18.364-3.814-2.068Z" transform="translate(0 10.271)" fill="none" stroke="#f20505" stroke-width="1"/>
        <path id="パス_72" data-name="パス 72" d="M99.477,31.446l3.312,2.384L93.584,53.056l5.3,3.818L97.247,60.3,83.329,50.28l1.64-3.426,5.3,3.819Z" transform="translate(0 7.117)" fill="none" stroke="#f20505" stroke-width="1"/>
        <path id="パス_73" data-name="パス 73" d="M67.188,26.979a17.255,17.255,0,0,1,3.729-5.619,7.551,7.551,0,0,1,4.778-2.2,9.131,9.131,0,0,1,5.616,1.809,11.761,11.761,0,0,1,4.328,4.8,12.3,12.3,0,0,1,1.07,6.108A20.522,20.522,0,0,1,84.9,38.792a17.1,17.1,0,0,1-3.714,5.587,7.5,7.5,0,0,1-4.758,2.194,9.267,9.267,0,0,1-5.649-1.851,11.811,11.811,0,0,1-4.294-4.759,12.147,12.147,0,0,1-1.1-6.086,20.414,20.414,0,0,1,1.8-6.9m14.164,9.414a14.192,14.192,0,0,0,1.437-7,6.4,6.4,0,0,0-3.036-4.905q-2.821-1.876-5.048-.467t-3.956,5.321a14.526,14.526,0,0,0-1.477,6.97,6.335,6.335,0,0,0,3.049,4.913q2.771,1.841,5.035.459t4-5.294" transform="translate(0 4.333)" fill="none" stroke="#f20505" stroke-width="1"/>
        <path id="パス_74" data-name="パス 74" d="M48.656,6.764l4.137,1.874,2.679,13.608,2.437-.975L60.644,12.2l3.6,1.632L56.821,38.468l-3.6-1.633L56.713,25.24q-.834.642-1.689,1.255t-1.718,1.242l-7.854,5.579-4.08-1.848,10.638-7.5Z" transform="translate(0 1.531)" fill="none" stroke="#f20505" stroke-width="1"/>
        <path id="パス_75" data-name="パス 75" d="M33.189,18.267,26.488,28.4l-4.054-1.028,9.609-13.944L33.731,3.416l3.761.953L35.835,14.2,40.12,31.857l-4.084-1.035Z" transform="translate(0 0.773)" fill="none" stroke="#f20505" stroke-width="1"/>
        <path id="パス_76" data-name="パス 76" d="M.042,12.915A20.664,20.664,0,0,1,1.518,5.9,9.581,9.581,0,0,1,5.11,1.454,8.93,8.93,0,0,1,10.829.222,9.3,9.3,0,0,1,16.4,2.369a10.408,10.408,0,0,1,3.053,5,21.331,21.331,0,0,1,.708,7.211,20.525,20.525,0,0,1-1.474,6.978,9.514,9.514,0,0,1-3.576,4.429A9.059,9.059,0,0,1,9.344,27.2a9.358,9.358,0,0,1-5.523-2.125A10.266,10.266,0,0,1,.752,20.107a21.187,21.187,0,0,1-.71-7.191m16.075,1.3a14.309,14.309,0,0,0-1.076-7.092,5.052,5.052,0,0,0-4.428-2.9A4.733,4.733,0,0,0,5.867,6.382a14.23,14.23,0,0,0-1.784,6.86,14.7,14.7,0,0,0,1.031,7.089,5.011,5.011,0,0,0,4.443,2.905,4.783,4.783,0,0,0,4.732-2.161,13.855,13.855,0,0,0,1.828-6.858" transform="translate(0 0.041)" fill="none" stroke="#f20505" stroke-width="1"/>
      </g>
    </g>
    <g id="グループ_117" data-name="グループ 117" transform="translate(-813.543 3680.455)">
      <g id="グループ_66-2" data-name="グループ 66" transform="translate(0 0)" clip-path="url(#clip-path)">
        <path id="パス_41-2" data-name="パス 41" d="M796.634,23.049a5.194,5.194,0,0,0,4.439-2.786,13.145,13.145,0,0,0,1.38-7.086,13.464,13.464,0,0,0-1.736-6.908,4.919,4.919,0,0,0-4.7-2.261,10.278,10.278,0,0,0-2.641.484,20.429,20.429,0,0,0-2.65,1.074l-.137-4.006a11.474,11.474,0,0,1,2.62-1.091,14.527,14.527,0,0,1,3.063-.451,8.531,8.531,0,0,1,5.511,1.392,9.611,9.611,0,0,1,3.368,4.542,21.622,21.622,0,0,1,1.292,7.057,19.58,19.58,0,0,1-.931,7.062,10.885,10.885,0,0,1-3.271,4.937,8.986,8.986,0,0,1-5.47,2.01,11.714,11.714,0,0,1-3.207-.277,11.479,11.479,0,0,1-3-1.136l1.187-3.927a22.6,22.6,0,0,0,2.392,1,6.406,6.406,0,0,0,2.489.37" transform="translate(0 0)" fill="none" stroke="#f20505" stroke-width="1"/>
        <path id="パス_42-2" data-name="パス 42" d="M765.051,4.92l3.784-.8,1.62,11.492,9.283-1.968L778.117,2.15l3.785-.8,3.649,25.883-3.784.8L780.3,17.593l-9.282,1.968L772.485,30l-3.784.8Z" transform="translate(0 0.305)" fill="none" stroke="#f20505" stroke-width="1"/>
        <path id="パス_43-2" data-name="パス 43" d="M743.9,11.668l11.542-4.773,6.845,24.891L750.74,36.558l-1.026-3.729,7.9-3.268-1.744-6.345-7.392,3.056-1.025-3.73,7.39-3.056-2.013-7.321-7.9,3.268Z" transform="translate(0 1.561)" fill="none" stroke="#f20505" stroke-width="1"/>
        <path id="パス_44-2" data-name="パス 44" d="M725.041,20.693l10.95-6.541,9.379,23.615-10.949,6.541-1.406-3.539,7.5-4.479-2.391-6.019-7.013,4.188L729.7,30.921l7.012-4.189-2.759-6.945-7.5,4.477Z" transform="translate(0 3.203)" fill="none" stroke="#f20505" stroke-width="1"/>
        <path id="パス_45-2" data-name="パス 45" d="M710.364,37.177a8.008,8.008,0,0,1-.473-6.047,10.4,10.4,0,0,1,4.124-5.282,12,12,0,0,1,5.79-2.427l1.81,3.818a21.425,21.425,0,0,0-3.131.678,10.164,10.164,0,0,0-3.089,1.5,4.943,4.943,0,0,0-2.066,2.558,3.65,3.65,0,0,0,.223,2.628,2.457,2.457,0,0,0,2.048,1.54,15.72,15.72,0,0,0,3.746-.223,12.265,12.265,0,0,1,2.863-.15,5.643,5.643,0,0,1,2.722.911,6.427,6.427,0,0,1,2.192,2.757,7.658,7.658,0,0,1,.484,5.74,9.349,9.349,0,0,1-3.689,4.844,12.637,12.637,0,0,1-2.944,1.588,14.089,14.089,0,0,1-3.092.759l-.491-4.033a17.044,17.044,0,0,0,2.67-.628,8.656,8.656,0,0,0,2.331-1.194,4.143,4.143,0,0,0,1.7-2.193,3.355,3.355,0,0,0-.219-2.439,2.719,2.719,0,0,0-1.136-1.3,3.426,3.426,0,0,0-1.771-.332q-1.074.04-2.7.267a14.684,14.684,0,0,1-3.346.152,5.175,5.175,0,0,1-2.588-.92,6.455,6.455,0,0,1-1.968-2.576" transform="translate(0 5.301)" fill="none" stroke="#f20505" stroke-width="1"/>
        <path id="パス_46-2" data-name="パス 46" d="M691.455,40.248l10.574-7.414,10.632,22.8-10.574,7.413-1.593-3.417,7.239-5.077-2.71-5.813-6.77,4.747-1.594-3.417,6.772-4.748L700.3,38.621,693.063,43.7Z" transform="translate(0 7.431)" fill="none" stroke="#f20505" stroke-width="1"/>
        <path id="パス_47-2" data-name="パス 47" d="M664.594,52.348l3.88,5.605,7.517-3.6-.275-7.335,3.8-1.82.507,28.077-4.08,1.955L660.794,54.168Zm6,8.934,3.741,5.474q.254.392.744,1.125t.966,1.512q.474.78.8,1.3-.09-.787-.164-1.777t-.144-1.868q-.069-.876-.077-1.3l-.249-7.148Z" transform="translate(0 10.23)" fill="none" stroke="#f20505" stroke-width="1"/>
        <path id="パス_48-2" data-name="パス 48" d="M651.871,77.958a5.764,5.764,0,0,0,3.924-3.775,13.545,13.545,0,0,0,.251-7.278q-.849-4.367-2.78-6.373a4.6,4.6,0,0,0-4.967-1.121,10.977,10.977,0,0,0-2.517,1.1,22.262,22.262,0,0,0-2.434,1.675l-.758-3.9a12.73,12.73,0,0,1,2.4-1.685,15.375,15.375,0,0,1,2.936-1.16,8.283,8.283,0,0,1,5.628.076,8.58,8.58,0,0,1,4.012,3.668,20.367,20.367,0,0,1,2.367,6.627,19.83,19.83,0,0,1,.187,7.151,12,12,0,0,1-2.441,5.61,9.84,9.84,0,0,1-5.058,3.255,11.776,11.776,0,0,1-3.191.479,10.819,10.819,0,0,1-3.119-.413l.555-4.133a21.538,21.538,0,0,0,2.5.423,6.4,6.4,0,0,0,2.5-.221" transform="translate(0 12.444)" fill="none" stroke="#f20505" stroke-width="1"/>
        <path id="パス_49-2" data-name="パス 49" d="M623.045,59.826l2.558,6.649,8.022-1.083,1.288-7.169,4.056-.548-5.458,27.276-4.354.587L618.989,60.374Zm3.9,10.539,2.453,6.479q.164.46.482,1.323t.611,1.768q.291.905.5,1.506c.054-.525.126-1.116.219-1.768s.177-1.27.256-1.849.146-1.007.2-1.285l1.274-6.983Z" transform="translate(0 13.053)" fill="none" stroke="#f20505" stroke-width="1"/>
        <path id="パス_50-2" data-name="パス 50" d="M596.9,73.5q-.03-6.661,2.982-10.048t8.443-3.429l6.031-.044.128,26.268-6.661.049a10.882,10.882,0,0,1-5.766-1.429,9.654,9.654,0,0,1-3.786-4.314A16.673,16.673,0,0,1,596.9,73.5m4.021-.178q.024,4.711,1.8,6.9a6.11,6.11,0,0,0,5.081,2.169l2.82-.021-.091-18.43-2.31.016q-7.348.055-7.3,9.362" transform="translate(0 13.574)" fill="none" stroke="#f20505" stroke-width="1"/>
        <path id="パス_51-2" data-name="パス 51" d="M578.291,58.561l12.131,1.345-1.929,26.161-12.13-1.345.288-3.919,8.307.92.491-6.669-7.768-.861.289-3.921,7.768.861.568-7.694L578,62.519Z" transform="translate(0 13.254)" fill="none" stroke="#f20505" stroke-width="1"/>
        <path id="パス_52-2" data-name="パス 52" d="M563.128,56.547l1.784,22.591.116.033q.078-.734.28-2.054t.445-2.857q.242-1.536.492-2.862l2.495-13.263,3.362.95L567.286,84.68l-5.2-1.472-1.712-21.665-.117-.033L550.741,80l-5.2-1.472,4.815-25.6,3.566,1.008-2.535,13.478q-.229,1.22-.547,2.659t-.606,2.736q-.291,1.3-.455,2l.118.034,9.9-19.249Z" transform="translate(0 11.98)" fill="none" stroke="#f20505" stroke-width="1"/>
        <path id="パス_53-2" data-name="パス 53" d="M533.438,61.839l-8.088,8.48-3.835-1.912,11.51-11.578,3.14-9.477,3.557,1.774-3.083,9.3,1.608,18.313-3.864-1.924Z" transform="translate(0 10.717)" fill="none" stroke="#f20505" stroke-width="1"/>
        <path id="パス_54-2" data-name="パス 54" d="M510.041,33.978l3.328,2.35L504.3,55.647l5.33,3.764-1.617,3.444-13.987-9.878,1.617-3.442,5.33,3.764Z" transform="translate(0 7.69)" fill="none" stroke="#f20505" stroke-width="1"/>
        <path id="パス_55-2" data-name="パス 55" d="M477.958,29.245a17.032,17.032,0,0,1,3.809-5.536,7.476,7.476,0,0,1,4.809-2.1,9.184,9.184,0,0,1,5.59,1.93,11.893,11.893,0,0,1,4.256,4.894,12.334,12.334,0,0,1,.982,6.132,20.431,20.431,0,0,1-1.911,6.875,16.921,16.921,0,0,1-3.8,5.5,7.438,7.438,0,0,1-4.788,2.091,9.329,9.329,0,0,1-5.621-1.973,11.945,11.945,0,0,1-4.225-4.853,12.179,12.179,0,0,1-1.01-6.108,20.282,20.282,0,0,1,1.9-6.859m14.024,9.722A14.121,14.121,0,0,0,493.52,32a6.454,6.454,0,0,0-2.964-4.969q-2.795-1.939-5.041-.579t-4.032,5.234a14.466,14.466,0,0,0-1.577,6.936,6.394,6.394,0,0,0,2.977,4.98q2.742,1.9,5.028.569t4.071-5.207" transform="translate(0 4.89)" fill="none" stroke="#f20505" stroke-width="1"/>
        <path id="パス_56-2" data-name="パス 56" d="M460.182,8.453l4.08,2.054,2.283,13.716,2.463-.868,3-8.95,3.552,1.788-8.135,24.3-3.552-1.788L467.7,27.271q-.852.6-1.725,1.18c-.582.381-1.166.771-1.752,1.165l-8.011,5.233-4.024-2.026L463.035,25.8Z" transform="translate(0 1.913)" fill="none" stroke="#f20505" stroke-width="1"/>
        <path id="パス_57-2" data-name="パス 57" d="M444.4,19.378l-6.984,9.844-4.024-1.2,10-13.525,1.971-9.939L449.1,5.672l-1.935,9.759,3.782,17.825-4.052-1.208Z" transform="translate(0 1.032)" fill="none" stroke="#f20505" stroke-width="1"/>
        <path id="パス_58-2" data-name="パス 58" d="M411.432,12.995A20.546,20.546,0,0,1,413.06,6.03,9.439,9.439,0,0,1,416.748,1.7,8.886,8.886,0,0,1,422.492.659a9.414,9.414,0,0,1,5.517,2.331,10.556,10.556,0,0,1,2.943,5.1,21.4,21.4,0,0,1,.55,7.23,20.375,20.375,0,0,1-1.626,6.927,9.357,9.357,0,0,1-3.671,4.309,8.982,8.982,0,0,1-5.787,1.02,9.456,9.456,0,0,1-5.474-2.3,10.413,10.413,0,0,1-2.96-5.067,21.272,21.272,0,0,1-.552-7.213m16.041,1.831a14.388,14.388,0,0,0-.921-7.126,5.132,5.132,0,0,0-4.363-3.047,4.687,4.687,0,0,0-4.792,2,14.117,14.117,0,0,0-1.933,6.8,14.785,14.785,0,0,0,.876,7.12,5.081,5.081,0,0,0,4.378,3.05,4.73,4.73,0,0,0,4.777-2,13.74,13.74,0,0,0,1.978-6.8" transform="translate(0 0.131)" fill="none" stroke="#f20505" stroke-width="1"/>
        <path id="パス_59-2" data-name="パス 59" d="M385.458,23.375a5.257,5.257,0,0,0,4.381-2.921,13.237,13.237,0,0,0,1.236-7.125A13.369,13.369,0,0,0,389.2,6.477a4.869,4.869,0,0,0-4.745-2.12,10.4,10.4,0,0,0-2.631.567,20.757,20.757,0,0,0-2.628,1.155l-.217-4a11.641,11.641,0,0,1,2.6-1.171,14.606,14.606,0,0,1,3.053-.547,8.485,8.485,0,0,1,5.539,1.225,9.468,9.468,0,0,1,3.458,4.437,21.432,21.432,0,0,1,1.435,7.016,19.636,19.636,0,0,1-.787,7.089,11.03,11.03,0,0,1-3.168,5.034,9.081,9.081,0,0,1-5.429,2.178,11.717,11.717,0,0,1-3.212-.179,11.337,11.337,0,0,1-3.019-1.044l1.108-3.962a22.324,22.324,0,0,0,2.411.927,6.39,6.39,0,0,0,2.5.293" transform="translate(0 0.073)" fill="none" stroke="#f20505" stroke-width="1"/>
        <path id="パス_60-2" data-name="パス 60" d="M353.456,6.349l3.76-.957,1.931,11.419,9.224-2.346L366.44,3.048l3.76-.958,4.35,25.721-3.761.957-1.754-10.375-9.224,2.345,1.754,10.375-3.759.958Z" transform="translate(0 0.473)" fill="none" stroke="#f20505" stroke-width="1"/>
        <path id="パス_61-2" data-name="パス 61" d="M332.522,13.847l11.393-5.285,7.578,24.569L340.1,38.415l-1.136-3.683,7.8-3.618-1.932-6.262-7.3,3.382L336.4,24.554l7.3-3.383-2.229-7.227-7.8,3.619Z" transform="translate(0 1.938)" fill="none" stroke="#f20505" stroke-width="1"/>
        <path id="パス_62-2" data-name="パス 62" d="M314.029,23.353l10.8-6.9,9.891,23.3-10.8,6.9-1.482-3.493,7.4-4.721L327.314,32.5l-6.919,4.417-1.482-3.493,6.919-4.417-2.909-6.853-7.4,4.723Z" transform="translate(0 3.725)" fill="none" stroke="#f20505" stroke-width="1"/>
        <path id="パス_63-2" data-name="パス 63" d="M299.841,39.741a8,8,0,0,1-.5-6.043,10.43,10.43,0,0,1,4.1-5.312,12.012,12.012,0,0,1,5.778-2.469l1.828,3.8a21.437,21.437,0,0,0-3.128.7,10.231,10.231,0,0,0-3.081,1.524,4.964,4.964,0,0,0-2.053,2.573,3.651,3.651,0,0,0,.235,2.628,2.449,2.449,0,0,0,2.057,1.523,15.666,15.666,0,0,0,3.745-.251,12.244,12.244,0,0,1,2.861-.169,5.623,5.623,0,0,1,2.726.89,6.4,6.4,0,0,1,2.206,2.74,7.657,7.657,0,0,1,.512,5.738,9.382,9.382,0,0,1-3.665,4.872,12.761,12.761,0,0,1-2.935,1.609,14.029,14.029,0,0,1-3.09.781l-.509-4.03a17.084,17.084,0,0,0,2.666-.647,8.641,8.641,0,0,0,2.326-1.212,4.166,4.166,0,0,0,1.691-2.2,3.36,3.36,0,0,0-.232-2.438,2.717,2.717,0,0,0-1.142-1.288,3.428,3.428,0,0,0-1.773-.32q-1.074.05-2.7.287a14.589,14.589,0,0,1-3.345.177,5.138,5.138,0,0,1-2.593-.9,6.442,6.442,0,0,1-1.98-2.561" transform="translate(0 5.866)" fill="none" stroke="#f20505" stroke-width="1"/>
        <path id="パス_64-2" data-name="パス 64" d="M280.832,42.556,291.5,35.335,301.849,58.33l-10.663,7.221L289.635,62.1l7.3-4.943L294.3,51.3l-6.828,4.623-1.552-3.445,6.829-4.624L289.7,41.091l-7.3,4.943Z" transform="translate(0 7.997)" fill="none" stroke="#f20505" stroke-width="1"/>
        <path id="パス_65-2" data-name="パス 65" d="M253.709,53.763l3.733,5.755,7.606-3.309-.086-7.341,3.846-1.671-.219,28.083-4.128,1.8-14.6-21.638Zm5.769,9.163,3.6,5.618q.245.4.715,1.153t.926,1.549q.454.8.765,1.326-.069-.789-.117-1.783t-.1-1.87c-.031-.586-.045-1.022-.044-1.31l-.063-7.154Z" transform="translate(0 10.682)" fill="none" stroke="#f20505" stroke-width="1"/>
        <path id="パス_66-2" data-name="パス 66" d="M240.283,79.074a5.67,5.67,0,0,0,4.016-3.626,13.515,13.515,0,0,0,.432-7.266,12.712,12.712,0,0,0-2.62-6.474,4.642,4.642,0,0,0-4.937-1.307,10.869,10.869,0,0,0-2.543,1,22.042,22.042,0,0,0-2.475,1.584l-.66-3.928a12.47,12.47,0,0,1,2.443-1.594,15.163,15.163,0,0,1,2.963-1.051,8.288,8.288,0,0,1,5.623.288,8.729,8.729,0,0,1,3.919,3.816,20.606,20.606,0,0,1,2.2,6.713,19.815,19.815,0,0,1,.008,7.154,11.833,11.833,0,0,1-2.579,5.516,9.7,9.7,0,0,1-5.137,3.065,11.794,11.794,0,0,1-3.2.359,10.9,10.9,0,0,1-3.107-.53l.657-4.109a21.682,21.682,0,0,0,2.491.515,6.408,6.408,0,0,0,2.506-.126" transform="translate(0 12.689)" fill="none" stroke="#f20505" stroke-width="1"/>
        <path id="パス_67-2" data-name="パス 67" d="M211.892,60.064l2.423,6.726,8.041-.838,1.434-7.126,4.065-.423-6.014,27.1-4.364.454-9.65-25.471ZM215.58,70.72l2.32,6.553q.153.464.454,1.337c.2.581.393,1.178.575,1.787s.338,1.115.466,1.521c.065-.525.149-1.111.255-1.763s.2-1.263.294-1.839.167-1,.228-1.279l1.417-6.941Z" transform="translate(0 13.218)" fill="none" stroke="#f20505" stroke-width="1"/>
        <path id="パス_68-2" data-name="パス 68" d="M185.47,73.205q.084-6.661,3.156-9.966t8.5-3.206l6.03.115-.334,26.265-6.66-.126a10.978,10.978,0,0,1-5.74-1.582,9.778,9.778,0,0,1-3.709-4.412,16.742,16.742,0,0,1-1.245-7.088m4.021-.071q-.06,4.709,1.682,6.95a6.161,6.161,0,0,0,5.041,2.3l2.82.054.234-18.429-2.31-.045q-7.348-.14-7.467,9.167" transform="translate(0 13.586)" fill="none" stroke="#f20505" stroke-width="1"/>
        <path id="パス_69-2" data-name="パス 69" d="M167.182,57.893l12.1,1.722-2.469,26.094-12.1-1.723.37-3.91,8.285,1.178L174,74.6l-7.748-1.1.37-3.911,7.748,1.1.726-7.674-8.285-1.178Z" transform="translate(0 13.103)" fill="none" stroke="#f20505" stroke-width="1"/>
        <path id="パス_70-2" data-name="パス 70" d="M152.134,55.526l1.208,22.65.116.037q.1-.73.331-2.042t.518-2.839q.282-1.527.565-2.843L157.7,57.328l3.336,1.079-5.464,25.4-5.163-1.671-1.16-21.721-.117-.038-9.978,18.116-5.164-1.67,5.465-25.4L143,52.57l-2.878,13.374q-.26,1.209-.613,2.637t-.677,2.71q-.322,1.286-.5,1.988l.116.037,10.387-18.86Z" transform="translate(0 11.639)" fill="none" stroke="#f20505" stroke-width="1"/>
        <path id="パス_71-2" data-name="パス 71" d="M122.335,59.762l-8.292,8.176-3.787-2.053,11.79-11.147,3.371-9.354,3.512,1.9-3.31,9.186,1.155,18.364-3.814-2.068Z" transform="translate(0 10.271)" fill="none" stroke="#f20505" stroke-width="1"/>
        <path id="パス_72-2" data-name="パス 72" d="M99.477,31.446l3.312,2.384L93.584,53.056l5.3,3.818L97.247,60.3,83.329,50.28l1.64-3.426,5.3,3.819Z" transform="translate(0 7.117)" fill="none" stroke="#f20505" stroke-width="1"/>
        <path id="パス_73-2" data-name="パス 73" d="M67.188,26.979a17.255,17.255,0,0,1,3.729-5.619,7.551,7.551,0,0,1,4.778-2.2,9.131,9.131,0,0,1,5.616,1.809,11.761,11.761,0,0,1,4.328,4.8,12.3,12.3,0,0,1,1.07,6.108A20.522,20.522,0,0,1,84.9,38.792a17.1,17.1,0,0,1-3.714,5.587,7.5,7.5,0,0,1-4.758,2.194,9.267,9.267,0,0,1-5.649-1.851,11.811,11.811,0,0,1-4.294-4.759,12.147,12.147,0,0,1-1.1-6.086,20.414,20.414,0,0,1,1.8-6.9m14.164,9.414a14.192,14.192,0,0,0,1.437-7,6.4,6.4,0,0,0-3.036-4.905q-2.821-1.876-5.048-.467t-3.956,5.321a14.526,14.526,0,0,0-1.477,6.97,6.335,6.335,0,0,0,3.049,4.913q2.771,1.841,5.035.459t4-5.294" transform="translate(0 4.333)" fill="none" stroke="#f20505" stroke-width="1"/>
        <path id="パス_74-2" data-name="パス 74" d="M48.656,6.764l4.137,1.874,2.679,13.608,2.437-.975L60.644,12.2l3.6,1.632L56.821,38.468l-3.6-1.633L56.713,25.24q-.834.642-1.689,1.255t-1.718,1.242l-7.854,5.579-4.08-1.848,10.638-7.5Z" transform="translate(0 1.531)" fill="none" stroke="#f20505" stroke-width="1"/>
        <path id="パス_75-2" data-name="パス 75" d="M33.189,18.267,26.488,28.4l-4.054-1.028,9.609-13.944L33.731,3.416l3.761.953L35.835,14.2,40.12,31.857l-4.084-1.035Z" transform="translate(0 0.773)" fill="none" stroke="#f20505" stroke-width="1"/>
        <path id="パス_76-2" data-name="パス 76" d="M.042,12.915A20.664,20.664,0,0,1,1.518,5.9,9.581,9.581,0,0,1,5.11,1.454,8.93,8.93,0,0,1,10.829.222,9.3,9.3,0,0,1,16.4,2.369a10.408,10.408,0,0,1,3.053,5,21.331,21.331,0,0,1,.708,7.211,20.525,20.525,0,0,1-1.474,6.978,9.514,9.514,0,0,1-3.576,4.429A9.059,9.059,0,0,1,9.344,27.2a9.358,9.358,0,0,1-5.523-2.125A10.266,10.266,0,0,1,.752,20.107a21.187,21.187,0,0,1-.71-7.191m16.075,1.3a14.309,14.309,0,0,0-1.076-7.092,5.052,5.052,0,0,0-4.428-2.9A4.733,4.733,0,0,0,5.867,6.382a14.23,14.23,0,0,0-1.784,6.86,14.7,14.7,0,0,0,1.031,7.089,5.011,5.011,0,0,0,4.443,2.905,4.783,4.783,0,0,0,4.732-2.161,13.855,13.855,0,0,0,1.828-6.858" transform="translate(0 0.041)" fill="none" stroke="#f20505" stroke-width="1"/>
      </g>
    </g>
    <g id="グループ_118" data-name="グループ 118" transform="translate(-2446.457 3680.455)">
      <g id="グループ_66-3" data-name="グループ 66" transform="translate(0 0)" clip-path="url(#clip-path)">
        <path id="パス_41-3" data-name="パス 41" d="M796.634,23.049a5.194,5.194,0,0,0,4.439-2.786,13.145,13.145,0,0,0,1.38-7.086,13.464,13.464,0,0,0-1.736-6.908,4.919,4.919,0,0,0-4.7-2.261,10.278,10.278,0,0,0-2.641.484,20.429,20.429,0,0,0-2.65,1.074l-.137-4.006a11.474,11.474,0,0,1,2.62-1.091,14.527,14.527,0,0,1,3.063-.451,8.531,8.531,0,0,1,5.511,1.392,9.611,9.611,0,0,1,3.368,4.542,21.622,21.622,0,0,1,1.292,7.057,19.58,19.58,0,0,1-.931,7.062,10.885,10.885,0,0,1-3.271,4.937,8.986,8.986,0,0,1-5.47,2.01,11.714,11.714,0,0,1-3.207-.277,11.479,11.479,0,0,1-3-1.136l1.187-3.927a22.6,22.6,0,0,0,2.392,1,6.406,6.406,0,0,0,2.489.37" transform="translate(0 0)" fill="none" stroke="#f20505" stroke-width="1"/>
        <path id="パス_42-3" data-name="パス 42" d="M765.051,4.92l3.784-.8,1.62,11.492,9.283-1.968L778.117,2.15l3.785-.8,3.649,25.883-3.784.8L780.3,17.593l-9.282,1.968L772.485,30l-3.784.8Z" transform="translate(0 0.305)" fill="none" stroke="#f20505" stroke-width="1"/>
        <path id="パス_43-3" data-name="パス 43" d="M743.9,11.668l11.542-4.773,6.845,24.891L750.74,36.558l-1.026-3.729,7.9-3.268-1.744-6.345-7.392,3.056-1.025-3.73,7.39-3.056-2.013-7.321-7.9,3.268Z" transform="translate(0 1.561)" fill="none" stroke="#f20505" stroke-width="1"/>
        <path id="パス_44-3" data-name="パス 44" d="M725.041,20.693l10.95-6.541,9.379,23.615-10.949,6.541-1.406-3.539,7.5-4.479-2.391-6.019-7.013,4.188L729.7,30.921l7.012-4.189-2.759-6.945-7.5,4.477Z" transform="translate(0 3.203)" fill="none" stroke="#f20505" stroke-width="1"/>
        <path id="パス_45-3" data-name="パス 45" d="M710.364,37.177a8.008,8.008,0,0,1-.473-6.047,10.4,10.4,0,0,1,4.124-5.282,12,12,0,0,1,5.79-2.427l1.81,3.818a21.425,21.425,0,0,0-3.131.678,10.164,10.164,0,0,0-3.089,1.5,4.943,4.943,0,0,0-2.066,2.558,3.65,3.65,0,0,0,.223,2.628,2.457,2.457,0,0,0,2.048,1.54,15.72,15.72,0,0,0,3.746-.223,12.265,12.265,0,0,1,2.863-.15,5.643,5.643,0,0,1,2.722.911,6.427,6.427,0,0,1,2.192,2.757,7.658,7.658,0,0,1,.484,5.74,9.349,9.349,0,0,1-3.689,4.844,12.637,12.637,0,0,1-2.944,1.588,14.089,14.089,0,0,1-3.092.759l-.491-4.033a17.044,17.044,0,0,0,2.67-.628,8.656,8.656,0,0,0,2.331-1.194,4.143,4.143,0,0,0,1.7-2.193,3.355,3.355,0,0,0-.219-2.439,2.719,2.719,0,0,0-1.136-1.3,3.426,3.426,0,0,0-1.771-.332q-1.074.04-2.7.267a14.684,14.684,0,0,1-3.346.152,5.175,5.175,0,0,1-2.588-.92,6.455,6.455,0,0,1-1.968-2.576" transform="translate(0 5.301)" fill="none" stroke="#f20505" stroke-width="1"/>
        <path id="パス_46-3" data-name="パス 46" d="M691.455,40.248l10.574-7.414,10.632,22.8-10.574,7.413-1.593-3.417,7.239-5.077-2.71-5.813-6.77,4.747-1.594-3.417,6.772-4.748L700.3,38.621,693.063,43.7Z" transform="translate(0 7.431)" fill="none" stroke="#f20505" stroke-width="1"/>
        <path id="パス_47-3" data-name="パス 47" d="M664.594,52.348l3.88,5.605,7.517-3.6-.275-7.335,3.8-1.82.507,28.077-4.08,1.955L660.794,54.168Zm6,8.934,3.741,5.474q.254.392.744,1.125t.966,1.512q.474.78.8,1.3-.09-.787-.164-1.777t-.144-1.868q-.069-.876-.077-1.3l-.249-7.148Z" transform="translate(0 10.23)" fill="none" stroke="#f20505" stroke-width="1"/>
        <path id="パス_48-3" data-name="パス 48" d="M651.871,77.958a5.764,5.764,0,0,0,3.924-3.775,13.545,13.545,0,0,0,.251-7.278q-.849-4.367-2.78-6.373a4.6,4.6,0,0,0-4.967-1.121,10.977,10.977,0,0,0-2.517,1.1,22.262,22.262,0,0,0-2.434,1.675l-.758-3.9a12.73,12.73,0,0,1,2.4-1.685,15.375,15.375,0,0,1,2.936-1.16,8.283,8.283,0,0,1,5.628.076,8.58,8.58,0,0,1,4.012,3.668,20.367,20.367,0,0,1,2.367,6.627,19.83,19.83,0,0,1,.187,7.151,12,12,0,0,1-2.441,5.61,9.84,9.84,0,0,1-5.058,3.255,11.776,11.776,0,0,1-3.191.479,10.819,10.819,0,0,1-3.119-.413l.555-4.133a21.538,21.538,0,0,0,2.5.423,6.4,6.4,0,0,0,2.5-.221" transform="translate(0 12.444)" fill="none" stroke="#f20505" stroke-width="1"/>
        <path id="パス_49-3" data-name="パス 49" d="M623.045,59.826l2.558,6.649,8.022-1.083,1.288-7.169,4.056-.548-5.458,27.276-4.354.587L618.989,60.374Zm3.9,10.539,2.453,6.479q.164.46.482,1.323t.611,1.768q.291.905.5,1.506c.054-.525.126-1.116.219-1.768s.177-1.27.256-1.849.146-1.007.2-1.285l1.274-6.983Z" transform="translate(0 13.053)" fill="none" stroke="#f20505" stroke-width="1"/>
        <path id="パス_50-3" data-name="パス 50" d="M596.9,73.5q-.03-6.661,2.982-10.048t8.443-3.429l6.031-.044.128,26.268-6.661.049a10.882,10.882,0,0,1-5.766-1.429,9.654,9.654,0,0,1-3.786-4.314A16.673,16.673,0,0,1,596.9,73.5m4.021-.178q.024,4.711,1.8,6.9a6.11,6.11,0,0,0,5.081,2.169l2.82-.021-.091-18.43-2.31.016q-7.348.055-7.3,9.362" transform="translate(0 13.574)" fill="none" stroke="#f20505" stroke-width="1"/>
        <path id="パス_51-3" data-name="パス 51" d="M578.291,58.561l12.131,1.345-1.929,26.161-12.13-1.345.288-3.919,8.307.92.491-6.669-7.768-.861.289-3.921,7.768.861.568-7.694L578,62.519Z" transform="translate(0 13.254)" fill="none" stroke="#f20505" stroke-width="1"/>
        <path id="パス_52-3" data-name="パス 52" d="M563.128,56.547l1.784,22.591.116.033q.078-.734.28-2.054t.445-2.857q.242-1.536.492-2.862l2.495-13.263,3.362.95L567.286,84.68l-5.2-1.472-1.712-21.665-.117-.033L550.741,80l-5.2-1.472,4.815-25.6,3.566,1.008-2.535,13.478q-.229,1.22-.547,2.659t-.606,2.736q-.291,1.3-.455,2l.118.034,9.9-19.249Z" transform="translate(0 11.98)" fill="none" stroke="#f20505" stroke-width="1"/>
        <path id="パス_53-3" data-name="パス 53" d="M533.438,61.839l-8.088,8.48-3.835-1.912,11.51-11.578,3.14-9.477,3.557,1.774-3.083,9.3,1.608,18.313-3.864-1.924Z" transform="translate(0 10.717)" fill="none" stroke="#f20505" stroke-width="1"/>
        <path id="パス_54-3" data-name="パス 54" d="M510.041,33.978l3.328,2.35L504.3,55.647l5.33,3.764-1.617,3.444-13.987-9.878,1.617-3.442,5.33,3.764Z" transform="translate(0 7.69)" fill="none" stroke="#f20505" stroke-width="1"/>
        <path id="パス_55-3" data-name="パス 55" d="M477.958,29.245a17.032,17.032,0,0,1,3.809-5.536,7.476,7.476,0,0,1,4.809-2.1,9.184,9.184,0,0,1,5.59,1.93,11.893,11.893,0,0,1,4.256,4.894,12.334,12.334,0,0,1,.982,6.132,20.431,20.431,0,0,1-1.911,6.875,16.921,16.921,0,0,1-3.8,5.5,7.438,7.438,0,0,1-4.788,2.091,9.329,9.329,0,0,1-5.621-1.973,11.945,11.945,0,0,1-4.225-4.853,12.179,12.179,0,0,1-1.01-6.108,20.282,20.282,0,0,1,1.9-6.859m14.024,9.722A14.121,14.121,0,0,0,493.52,32a6.454,6.454,0,0,0-2.964-4.969q-2.795-1.939-5.041-.579t-4.032,5.234a14.466,14.466,0,0,0-1.577,6.936,6.394,6.394,0,0,0,2.977,4.98q2.742,1.9,5.028.569t4.071-5.207" transform="translate(0 4.89)" fill="none" stroke="#f20505" stroke-width="1"/>
        <path id="パス_56-3" data-name="パス 56" d="M460.182,8.453l4.08,2.054,2.283,13.716,2.463-.868,3-8.95,3.552,1.788-8.135,24.3-3.552-1.788L467.7,27.271q-.852.6-1.725,1.18c-.582.381-1.166.771-1.752,1.165l-8.011,5.233-4.024-2.026L463.035,25.8Z" transform="translate(0 1.913)" fill="none" stroke="#f20505" stroke-width="1"/>
        <path id="パス_57-3" data-name="パス 57" d="M444.4,19.378l-6.984,9.844-4.024-1.2,10-13.525,1.971-9.939L449.1,5.672l-1.935,9.759,3.782,17.825-4.052-1.208Z" transform="translate(0 1.032)" fill="none" stroke="#f20505" stroke-width="1"/>
        <path id="パス_58-3" data-name="パス 58" d="M411.432,12.995A20.546,20.546,0,0,1,413.06,6.03,9.439,9.439,0,0,1,416.748,1.7,8.886,8.886,0,0,1,422.492.659a9.414,9.414,0,0,1,5.517,2.331,10.556,10.556,0,0,1,2.943,5.1,21.4,21.4,0,0,1,.55,7.23,20.375,20.375,0,0,1-1.626,6.927,9.357,9.357,0,0,1-3.671,4.309,8.982,8.982,0,0,1-5.787,1.02,9.456,9.456,0,0,1-5.474-2.3,10.413,10.413,0,0,1-2.96-5.067,21.272,21.272,0,0,1-.552-7.213m16.041,1.831a14.388,14.388,0,0,0-.921-7.126,5.132,5.132,0,0,0-4.363-3.047,4.687,4.687,0,0,0-4.792,2,14.117,14.117,0,0,0-1.933,6.8,14.785,14.785,0,0,0,.876,7.12,5.081,5.081,0,0,0,4.378,3.05,4.73,4.73,0,0,0,4.777-2,13.74,13.74,0,0,0,1.978-6.8" transform="translate(0 0.131)" fill="none" stroke="#f20505" stroke-width="1"/>
        <path id="パス_59-3" data-name="パス 59" d="M385.458,23.375a5.257,5.257,0,0,0,4.381-2.921,13.237,13.237,0,0,0,1.236-7.125A13.369,13.369,0,0,0,389.2,6.477a4.869,4.869,0,0,0-4.745-2.12,10.4,10.4,0,0,0-2.631.567,20.757,20.757,0,0,0-2.628,1.155l-.217-4a11.641,11.641,0,0,1,2.6-1.171,14.606,14.606,0,0,1,3.053-.547,8.485,8.485,0,0,1,5.539,1.225,9.468,9.468,0,0,1,3.458,4.437,21.432,21.432,0,0,1,1.435,7.016,19.636,19.636,0,0,1-.787,7.089,11.03,11.03,0,0,1-3.168,5.034,9.081,9.081,0,0,1-5.429,2.178,11.717,11.717,0,0,1-3.212-.179,11.337,11.337,0,0,1-3.019-1.044l1.108-3.962a22.324,22.324,0,0,0,2.411.927,6.39,6.39,0,0,0,2.5.293" transform="translate(0 0.073)" fill="none" stroke="#f20505" stroke-width="1"/>
        <path id="パス_60-3" data-name="パス 60" d="M353.456,6.349l3.76-.957,1.931,11.419,9.224-2.346L366.44,3.048l3.76-.958,4.35,25.721-3.761.957-1.754-10.375-9.224,2.345,1.754,10.375-3.759.958Z" transform="translate(0 0.473)" fill="none" stroke="#f20505" stroke-width="1"/>
        <path id="パス_61-3" data-name="パス 61" d="M332.522,13.847l11.393-5.285,7.578,24.569L340.1,38.415l-1.136-3.683,7.8-3.618-1.932-6.262-7.3,3.382L336.4,24.554l7.3-3.383-2.229-7.227-7.8,3.619Z" transform="translate(0 1.938)" fill="none" stroke="#f20505" stroke-width="1"/>
        <path id="パス_62-3" data-name="パス 62" d="M314.029,23.353l10.8-6.9,9.891,23.3-10.8,6.9-1.482-3.493,7.4-4.721L327.314,32.5l-6.919,4.417-1.482-3.493,6.919-4.417-2.909-6.853-7.4,4.723Z" transform="translate(0 3.725)" fill="none" stroke="#f20505" stroke-width="1"/>
        <path id="パス_63-3" data-name="パス 63" d="M299.841,39.741a8,8,0,0,1-.5-6.043,10.43,10.43,0,0,1,4.1-5.312,12.012,12.012,0,0,1,5.778-2.469l1.828,3.8a21.437,21.437,0,0,0-3.128.7,10.231,10.231,0,0,0-3.081,1.524,4.964,4.964,0,0,0-2.053,2.573,3.651,3.651,0,0,0,.235,2.628,2.449,2.449,0,0,0,2.057,1.523,15.666,15.666,0,0,0,3.745-.251,12.244,12.244,0,0,1,2.861-.169,5.623,5.623,0,0,1,2.726.89,6.4,6.4,0,0,1,2.206,2.74,7.657,7.657,0,0,1,.512,5.738,9.382,9.382,0,0,1-3.665,4.872,12.761,12.761,0,0,1-2.935,1.609,14.029,14.029,0,0,1-3.09.781l-.509-4.03a17.084,17.084,0,0,0,2.666-.647,8.641,8.641,0,0,0,2.326-1.212,4.166,4.166,0,0,0,1.691-2.2,3.36,3.36,0,0,0-.232-2.438,2.717,2.717,0,0,0-1.142-1.288,3.428,3.428,0,0,0-1.773-.32q-1.074.05-2.7.287a14.589,14.589,0,0,1-3.345.177,5.138,5.138,0,0,1-2.593-.9,6.442,6.442,0,0,1-1.98-2.561" transform="translate(0 5.866)" fill="none" stroke="#f20505" stroke-width="1"/>
        <path id="パス_64-3" data-name="パス 64" d="M280.832,42.556,291.5,35.335,301.849,58.33l-10.663,7.221L289.635,62.1l7.3-4.943L294.3,51.3l-6.828,4.623-1.552-3.445,6.829-4.624L289.7,41.091l-7.3,4.943Z" transform="translate(0 7.997)" fill="none" stroke="#f20505" stroke-width="1"/>
        <path id="パス_65-3" data-name="パス 65" d="M253.709,53.763l3.733,5.755,7.606-3.309-.086-7.341,3.846-1.671-.219,28.083-4.128,1.8-14.6-21.638Zm5.769,9.163,3.6,5.618q.245.4.715,1.153t.926,1.549q.454.8.765,1.326-.069-.789-.117-1.783t-.1-1.87c-.031-.586-.045-1.022-.044-1.31l-.063-7.154Z" transform="translate(0 10.682)" fill="none" stroke="#f20505" stroke-width="1"/>
        <path id="パス_66-3" data-name="パス 66" d="M240.283,79.074a5.67,5.67,0,0,0,4.016-3.626,13.515,13.515,0,0,0,.432-7.266,12.712,12.712,0,0,0-2.62-6.474,4.642,4.642,0,0,0-4.937-1.307,10.869,10.869,0,0,0-2.543,1,22.042,22.042,0,0,0-2.475,1.584l-.66-3.928a12.47,12.47,0,0,1,2.443-1.594,15.163,15.163,0,0,1,2.963-1.051,8.288,8.288,0,0,1,5.623.288,8.729,8.729,0,0,1,3.919,3.816,20.606,20.606,0,0,1,2.2,6.713,19.815,19.815,0,0,1,.008,7.154,11.833,11.833,0,0,1-2.579,5.516,9.7,9.7,0,0,1-5.137,3.065,11.794,11.794,0,0,1-3.2.359,10.9,10.9,0,0,1-3.107-.53l.657-4.109a21.682,21.682,0,0,0,2.491.515,6.408,6.408,0,0,0,2.506-.126" transform="translate(0 12.689)" fill="none" stroke="#f20505" stroke-width="1"/>
        <path id="パス_67-3" data-name="パス 67" d="M211.892,60.064l2.423,6.726,8.041-.838,1.434-7.126,4.065-.423-6.014,27.1-4.364.454-9.65-25.471ZM215.58,70.72l2.32,6.553q.153.464.454,1.337c.2.581.393,1.178.575,1.787s.338,1.115.466,1.521c.065-.525.149-1.111.255-1.763s.2-1.263.294-1.839.167-1,.228-1.279l1.417-6.941Z" transform="translate(0 13.218)" fill="none" stroke="#f20505" stroke-width="1"/>
        <path id="パス_68-3" data-name="パス 68" d="M185.47,73.205q.084-6.661,3.156-9.966t8.5-3.206l6.03.115-.334,26.265-6.66-.126a10.978,10.978,0,0,1-5.74-1.582,9.778,9.778,0,0,1-3.709-4.412,16.742,16.742,0,0,1-1.245-7.088m4.021-.071q-.06,4.709,1.682,6.95a6.161,6.161,0,0,0,5.041,2.3l2.82.054.234-18.429-2.31-.045q-7.348-.14-7.467,9.167" transform="translate(0 13.586)" fill="none" stroke="#f20505" stroke-width="1"/>
        <path id="パス_69-3" data-name="パス 69" d="M167.182,57.893l12.1,1.722-2.469,26.094-12.1-1.723.37-3.91,8.285,1.178L174,74.6l-7.748-1.1.37-3.911,7.748,1.1.726-7.674-8.285-1.178Z" transform="translate(0 13.103)" fill="none" stroke="#f20505" stroke-width="1"/>
        <path id="パス_70-3" data-name="パス 70" d="M152.134,55.526l1.208,22.65.116.037q.1-.73.331-2.042t.518-2.839q.282-1.527.565-2.843L157.7,57.328l3.336,1.079-5.464,25.4-5.163-1.671-1.16-21.721-.117-.038-9.978,18.116-5.164-1.67,5.465-25.4L143,52.57l-2.878,13.374q-.26,1.209-.613,2.637t-.677,2.71q-.322,1.286-.5,1.988l.116.037,10.387-18.86Z" transform="translate(0 11.639)" fill="none" stroke="#f20505" stroke-width="1"/>
        <path id="パス_71-3" data-name="パス 71" d="M122.335,59.762l-8.292,8.176-3.787-2.053,11.79-11.147,3.371-9.354,3.512,1.9-3.31,9.186,1.155,18.364-3.814-2.068Z" transform="translate(0 10.271)" fill="none" stroke="#f20505" stroke-width="1"/>
        <path id="パス_72-3" data-name="パス 72" d="M99.477,31.446l3.312,2.384L93.584,53.056l5.3,3.818L97.247,60.3,83.329,50.28l1.64-3.426,5.3,3.819Z" transform="translate(0 7.117)" fill="none" stroke="#f20505" stroke-width="1"/>
        <path id="パス_73-3" data-name="パス 73" d="M67.188,26.979a17.255,17.255,0,0,1,3.729-5.619,7.551,7.551,0,0,1,4.778-2.2,9.131,9.131,0,0,1,5.616,1.809,11.761,11.761,0,0,1,4.328,4.8,12.3,12.3,0,0,1,1.07,6.108A20.522,20.522,0,0,1,84.9,38.792a17.1,17.1,0,0,1-3.714,5.587,7.5,7.5,0,0,1-4.758,2.194,9.267,9.267,0,0,1-5.649-1.851,11.811,11.811,0,0,1-4.294-4.759,12.147,12.147,0,0,1-1.1-6.086,20.414,20.414,0,0,1,1.8-6.9m14.164,9.414a14.192,14.192,0,0,0,1.437-7,6.4,6.4,0,0,0-3.036-4.905q-2.821-1.876-5.048-.467t-3.956,5.321a14.526,14.526,0,0,0-1.477,6.97,6.335,6.335,0,0,0,3.049,4.913q2.771,1.841,5.035.459t4-5.294" transform="translate(0 4.333)" fill="none" stroke="#f20505" stroke-width="1"/>
        <path id="パス_74-3" data-name="パス 74" d="M48.656,6.764l4.137,1.874,2.679,13.608,2.437-.975L60.644,12.2l3.6,1.632L56.821,38.468l-3.6-1.633L56.713,25.24q-.834.642-1.689,1.255t-1.718,1.242l-7.854,5.579-4.08-1.848,10.638-7.5Z" transform="translate(0 1.531)" fill="none" stroke="#f20505" stroke-width="1"/>
        <path id="パス_75-3" data-name="パス 75" d="M33.189,18.267,26.488,28.4l-4.054-1.028,9.609-13.944L33.731,3.416l3.761.953L35.835,14.2,40.12,31.857l-4.084-1.035Z" transform="translate(0 0.773)" fill="none" stroke="#f20505" stroke-width="1"/>
        <path id="パス_76-3" data-name="パス 76" d="M.042,12.915A20.664,20.664,0,0,1,1.518,5.9,9.581,9.581,0,0,1,5.11,1.454,8.93,8.93,0,0,1,10.829.222,9.3,9.3,0,0,1,16.4,2.369a10.408,10.408,0,0,1,3.053,5,21.331,21.331,0,0,1,.708,7.211,20.525,20.525,0,0,1-1.474,6.978,9.514,9.514,0,0,1-3.576,4.429A9.059,9.059,0,0,1,9.344,27.2a9.358,9.358,0,0,1-5.523-2.125A10.266,10.266,0,0,1,.752,20.107a21.187,21.187,0,0,1-.71-7.191m16.075,1.3a14.309,14.309,0,0,0-1.076-7.092,5.052,5.052,0,0,0-4.428-2.9A4.733,4.733,0,0,0,5.867,6.382a14.23,14.23,0,0,0-1.784,6.86,14.7,14.7,0,0,0,1.031,7.089,5.011,5.011,0,0,0,4.443,2.905,4.783,4.783,0,0,0,4.732-2.161,13.855,13.855,0,0,0,1.828-6.858" transform="translate(0 0.041)" fill="none" stroke="#f20505" stroke-width="1"/>
      </g>
    </g>
  </g>
</svg>
